<svg xmlns="http://www.w3.org/2000/svg" width="224.88" viewBox="0 0 224.88 75" height="75" version="1.0"><g fill="#262A3D" fill-opacity=".6"><g><g><path d="M 27.066406 -24.359375 C 27.1875 -22.984375 27.3125 -21.550781 27.429688 -20.175781 L 27.792969 -15.992188 C 27.910156 -14.621094 28.097656 -13.191406 28.21875 -11.816406 L 28.582031 -7.636719 C 28.703125 -6.199219 28.886719 -4.832031 29.003906 -3.457031 C 29.023438 -3.273438 28.90625 -3.136719 28.917969 -3.011719 C 28.933594 -2.824219 28.761719 -2.621094 28.578125 -2.605469 C 28.453125 -2.59375 28.332031 -2.519531 28.203125 -2.570312 L 28.023438 -2.429688 C 26.527344 -2.300781 25.019531 -2.296875 23.457031 -2.160156 C 23.269531 -2.144531 23.082031 -2.128906 22.964844 -2.054688 L 22.589844 -2.023438 C 21.714844 -1.945312 22.664062 -1.902344 20.773438 -1.925781 C 20.523438 -1.90625 20.273438 -1.882812 20.082031 -1.929688 C 19.707031 -1.898438 19.394531 -1.871094 19.015625 -1.902344 C 18.828125 -1.882812 18.566406 -1.988281 18.375 -2.035156 C 18.121094 -2.074219 17.871094 -2.054688 17.617188 -2.09375 L 16.789062 -2.210938 C 16.40625 -2.242188 16.085938 -2.339844 15.699219 -2.429688 C 15.375 -2.527344 15.058594 -2.5625 14.796875 -2.667969 C 14.542969 -2.707031 14.339844 -2.878906 14.148438 -2.925781 C 13.757812 -3.078125 13.375 -3.109375 12.984375 -3.265625 C 12.464844 -3.472656 11.9375 -3.738281 11.414062 -4.007812 C 11.015625 -4.226562 10.621094 -4.441406 10.21875 -4.722656 C 9.890625 -4.882812 9.613281 -5.171875 9.347656 -5.339844 C 9.074219 -5.566406 8.753906 -5.664062 8.480469 -5.890625 C 8.414062 -5.949219 8.402344 -6.074219 8.339844 -6.070312 L 8.136719 -6.238281 C 8 -6.355469 7.742188 -6.457031 7.601562 -6.632812 C 7.398438 -6.804688 7.199219 -6.914062 7.050781 -7.152344 C 6.78125 -7.378906 6.5625 -7.738281 6.347656 -8.035156 C 6.132812 -8.328125 5.804688 -8.488281 5.585938 -8.847656 C 5.511719 -8.96875 5.3125 -9.078125 5.234375 -9.257812 C 5.019531 -9.554688 4.929688 -9.859375 4.777344 -10.160156 C 4.636719 -10.339844 4.371094 -10.503906 4.292969 -10.6875 C 4.144531 -10.925781 4.058594 -11.230469 3.96875 -11.539062 C 3.753906 -11.832031 3.597656 -12.199219 3.445312 -12.5 C 3.132812 -13.164062 2.832031 -13.765625 2.585938 -14.4375 C 2.488281 -14.804688 2.390625 -15.238281 2.289062 -15.667969 L 2.027344 -16.527344 C 1.597656 -18.5625 1.417969 -20.625 1.234375 -22.746094 C 1.121094 -24.058594 1 -25.429688 0.882812 -26.804688 L 0.53125 -30.859375 C 0.410156 -32.234375 0.355469 -33.613281 0.234375 -34.984375 C 0.117188 -36.359375 -0.121094 -37.660156 -0.242188 -39.03125 C -0.359375 -40.40625 -0.417969 -41.785156 -0.535156 -43.15625 C -0.546875 -43.28125 -0.496094 -43.410156 -0.441406 -43.542969 C -0.402344 -43.796875 -0.351562 -43.925781 -0.101562 -43.949219 C -0.0390625 -43.953125 -0.0351562 -43.890625 0.0273438 -43.898438 C 1.152344 -43.996094 2.269531 -44.15625 3.394531 -44.253906 C 4.582031 -44.355469 5.699219 -44.515625 6.820312 -44.613281 C 6.882812 -44.617188 7.023438 -44.441406 7.085938 -44.445312 C 7.28125 -44.402344 7.28125 -44.402344 7.359375 -44.21875 L 7.390625 -43.84375 C 7.519531 -42.347656 7.78125 -40.796875 7.917969 -39.234375 C 8.046875 -37.738281 8.121094 -36.171875 8.253906 -34.613281 C 8.386719 -33.113281 8.644531 -31.5625 8.78125 -30.003906 C 8.910156 -28.503906 8.984375 -26.941406 9.117188 -25.378906 L 9.519531 -20.761719 C 9.589844 -19.949219 9.71875 -19.207031 9.910156 -18.40625 C 10.011719 -17.972656 9.988281 -17.53125 10.152344 -17.105469 C 10.25 -16.671875 10.417969 -16.183594 10.644531 -15.765625 C 10.734375 -15.457031 11 -15.292969 11.214844 -14.996094 C 11.296875 -14.753906 11.507812 -14.519531 11.652344 -14.28125 C 11.800781 -14.039062 11.945312 -13.800781 12.15625 -13.570312 C 12.296875 -13.390625 12.441406 -13.152344 12.582031 -12.976562 L 12.921875 -12.691406 C 12.992188 -12.636719 13.121094 -12.582031 13.125 -12.519531 C 13.1875 -12.527344 13.132812 -12.457031 13.136719 -12.394531 C 13.269531 -12.34375 13.398438 -12.292969 13.464844 -12.234375 L 13.871094 -11.894531 C 14.207031 -11.671875 14.484375 -11.378906 14.878906 -11.164062 C 15.335938 -10.953125 15.851562 -10.808594 16.3125 -10.597656 C 16.699219 -10.503906 17.140625 -10.480469 17.523438 -10.386719 C 17.785156 -10.285156 17.988281 -10.113281 18.242188 -10.070312 C 18.5 -10.03125 18.8125 -10.058594 19.0625 -10.078125 C 19.191406 -10.027344 19.378906 -10.042969 19.566406 -10.0625 C 19.753906 -10.078125 19.878906 -10.085938 19.996094 -10.160156 C 20.117188 -10.234375 20.105469 -10.359375 20.101562 -10.421875 C 20.15625 -10.488281 20.214844 -10.558594 20.207031 -10.621094 C 20.261719 -10.75 20.1875 -10.871094 20.183594 -10.933594 L 20.175781 -10.996094 C 20.101562 -11.113281 20.148438 -11.304688 20.136719 -11.429688 C 19.996094 -13.054688 19.988281 -14.625 19.851562 -16.1875 C 19.710938 -17.808594 19.390625 -19.351562 19.253906 -20.914062 C 19.113281 -22.535156 19.101562 -24.105469 18.964844 -25.667969 C 18.824219 -27.289062 18.566406 -28.839844 18.429688 -30.402344 C 18.289062 -32.023438 18.28125 -33.59375 18.144531 -35.15625 C 18.003906 -36.777344 17.929688 -38.34375 17.796875 -39.902344 C 17.652344 -41.527344 17.394531 -43.078125 17.257812 -44.636719 L 17.214844 -45.136719 C 17.261719 -45.328125 17.4375 -45.46875 17.6875 -45.492188 L 17.8125 -45.503906 C 18.1875 -45.535156 23.738281 -46.078125 24.671875 -46.160156 L 24.984375 -46.1875 C 25.054688 -46.128906 25.132812 -45.949219 25.140625 -45.824219 C 25.210938 -45.765625 25.160156 -45.636719 25.230469 -45.515625 C 25.238281 -45.453125 25.304688 -45.398438 25.3125 -45.335938 C 25.433594 -43.898438 25.617188 -42.53125 25.734375 -41.160156 C 25.859375 -39.722656 25.917969 -38.34375 26.042969 -36.910156 L 26.402344 -32.726562 C 26.523438 -31.355469 26.703125 -29.984375 26.828125 -28.550781 C 26.949219 -27.175781 26.941406 -25.792969 27.066406 -24.359375 Z M 27.066406 -24.359375" transform="translate(5.458 61.718)"/></g></g></g><g fill="#262A3D" fill-opacity=".6"><g><g><path d="M 24.054688 -0.644531 C 24.054688 -0.644531 23.988281 -0.707031 23.925781 -0.703125 C 23.550781 -0.6875 23.179688 -0.542969 22.804688 -0.527344 C 22.492188 -0.511719 22.175781 -0.5625 21.859375 -0.609375 C 21.609375 -0.597656 21.355469 -0.710938 21.101562 -0.699219 C 20.789062 -0.75 20.535156 -0.800781 20.21875 -0.847656 L 18.832031 -0.976562 C 18.390625 -1.082031 17.882812 -1.183594 17.4375 -1.351562 C 17.183594 -1.402344 16.925781 -1.515625 16.675781 -1.566406 C 16.164062 -1.734375 15.65625 -1.898438 15.144531 -2.125 C 14.761719 -2.234375 14.316406 -2.402344 13.929688 -2.636719 C 13.289062 -2.921875 12.648438 -3.265625 12.003906 -3.613281 C 11.421875 -3.964844 10.78125 -4.3125 10.199219 -4.726562 L 9.226562 -5.371094 C 9.035156 -5.488281 8.839844 -5.667969 8.640625 -5.847656 C 8.445312 -6.023438 8.3125 -6.207031 8.117188 -6.324219 C 8.054688 -6.382812 7.992188 -6.320312 7.929688 -6.378906 C 7.867188 -6.375 7.984375 -6.507812 7.917969 -6.566406 C 7.855469 -6.625 7.667969 -6.617188 7.535156 -6.738281 C 7.335938 -6.980469 7.199219 -7.222656 6.9375 -7.460938 C 6.738281 -7.703125 6.421875 -7.816406 6.222656 -8.058594 L 5.492188 -8.964844 C 5.226562 -9.265625 4.960938 -9.570312 4.761719 -9.871094 L 4.015625 -11.09375 C 3.613281 -11.640625 3.402344 -12.195312 3.058594 -12.804688 C 2.921875 -13.050781 2.847656 -13.363281 2.707031 -13.667969 L 2.082031 -15.019531 C 1.800781 -15.699219 1.585938 -16.316406 1.367188 -16.996094 C 1.289062 -17.304688 1.273438 -17.679688 1.191406 -18.054688 C 1.121094 -18.238281 0.984375 -18.484375 0.972656 -18.734375 C 0.90625 -18.855469 1.023438 -19.050781 0.953125 -19.171875 C 0.949219 -19.296875 0.878906 -19.417969 0.875 -19.542969 L 0.652344 -20.285156 C 0.640625 -20.535156 0.695312 -20.726562 0.625 -20.914062 C 0.617188 -21.101562 0.734375 -21.292969 0.726562 -21.417969 C 0.722656 -21.480469 0.65625 -21.605469 0.652344 -21.667969 L 0.648438 -21.792969 C 0.640625 -21.980469 0.566406 -22.164062 0.558594 -22.351562 L 0.554688 -22.476562 C 0.546875 -22.601562 0.542969 -22.726562 0.535156 -22.851562 L 0.5 -23.667969 C 0.484375 -24.042969 0.65625 -24.363281 0.640625 -24.738281 C 0.6875 -25.054688 0.609375 -25.425781 0.65625 -25.742188 C 0.648438 -25.929688 0.769531 -26.0625 0.761719 -26.25 C 0.8125 -26.441406 0.804688 -26.691406 0.855469 -26.945312 C 0.898438 -27.320312 1.136719 -27.644531 1.183594 -28.023438 C 1.289062 -28.40625 1.269531 -28.84375 1.375 -29.289062 C 1.484375 -29.667969 1.78125 -30.058594 1.886719 -30.4375 C 2.054688 -30.886719 2.097656 -31.328125 2.269531 -31.710938 C 2.378906 -32.03125 2.621094 -32.292969 2.792969 -32.613281 C 3.082031 -33.191406 3.242188 -33.824219 3.589844 -34.40625 C 3.882812 -34.917969 4.171875 -35.433594 4.523438 -35.953125 C 4.761719 -36.277344 5.128906 -36.480469 5.363281 -36.804688 C 5.542969 -37 5.65625 -37.257812 5.835938 -37.453125 C 5.832031 -37.515625 5.769531 -37.574219 5.769531 -37.574219 C 6.066406 -37.902344 6.367188 -38.230469 6.730469 -38.496094 C 6.96875 -38.757812 7.207031 -39.082031 7.507812 -39.347656 C 7.625 -39.476562 7.742188 -39.671875 7.925781 -39.804688 L 8.417969 -40.015625 C 8.71875 -40.28125 9.019531 -40.542969 9.386719 -40.8125 C 9.746094 -41.140625 10.167969 -41.539062 10.59375 -41.808594 L 11.875 -42.617188 C 12.363281 -42.890625 12.917969 -43.105469 13.472656 -43.316406 C 13.71875 -43.453125 13.957031 -43.714844 14.207031 -43.789062 C 14.511719 -43.929688 14.824219 -44.003906 15.128906 -44.144531 C 15.996094 -44.433594 16.863281 -44.660156 17.734375 -44.824219 C 17.917969 -44.898438 18.164062 -45.035156 18.414062 -45.042969 C 18.660156 -45.117188 18.90625 -45.253906 19.21875 -45.269531 C 19.402344 -45.339844 19.65625 -45.289062 19.84375 -45.296875 C 19.964844 -45.367188 20.15625 -45.3125 20.34375 -45.382812 L 21.09375 -45.417969 C 21.15625 -45.417969 21.210938 -45.546875 21.277344 -45.550781 C 21.527344 -45.5625 21.777344 -45.574219 22.027344 -45.585938 L 22.152344 -45.589844 C 22.339844 -45.597656 22.585938 -45.671875 22.777344 -45.617188 C 23.089844 -45.632812 23.40625 -45.582031 23.71875 -45.597656 L 24.15625 -45.617188 C 24.347656 -45.5625 24.59375 -45.636719 24.847656 -45.585938 C 25.097656 -45.597656 25.359375 -45.421875 25.609375 -45.433594 C 26.113281 -45.328125 26.550781 -45.347656 27.058594 -45.246094 C 27.25 -45.191406 27.5 -45.203125 27.753906 -45.152344 C 28.382812 -45.054688 29.019531 -44.894531 29.59375 -44.671875 C 29.910156 -44.558594 30.167969 -44.445312 30.421875 -44.394531 L 31.441406 -44.066406 C 31.824219 -43.894531 32.214844 -43.597656 32.597656 -43.425781 C 33.046875 -43.195312 33.554688 -43.03125 34.007812 -42.738281 C 34.265625 -42.5625 34.648438 -42.453125 34.96875 -42.28125 C 35.292969 -42.042969 35.683594 -41.746094 36.011719 -41.449219 L 36.722656 -40.917969 C 36.921875 -40.738281 37.117188 -40.558594 37.308594 -40.441406 C 37.570312 -40.203125 37.769531 -40.023438 38.027344 -39.847656 L 38.480469 -39.492188 C 38.609375 -39.433594 38.617188 -39.246094 38.75 -39.125 C 38.878906 -39.007812 39.136719 -38.894531 39.332031 -38.714844 C 39.464844 -38.59375 39.597656 -38.410156 39.730469 -38.230469 C 39.863281 -38.046875 39.9375 -37.800781 40.132812 -37.621094 L 40.730469 -36.894531 C 40.996094 -36.59375 41.257812 -36.355469 41.460938 -35.988281 L 42.058594 -35.261719 C 42.195312 -35.015625 42.398438 -34.710938 42.535156 -34.40625 C 42.738281 -34.101562 42.941406 -33.796875 43.078125 -33.488281 C 43.28125 -33.183594 43.425781 -32.816406 43.566406 -32.445312 C 43.773438 -32.015625 43.921875 -31.519531 44.128906 -31.089844 C 44.277344 -30.59375 44.484375 -30.164062 44.628906 -29.734375 C 44.773438 -29.300781 44.792969 -28.863281 44.9375 -28.429688 C 45.015625 -28.121094 45.03125 -27.808594 45.105469 -27.496094 C 45.117188 -27.246094 45.195312 -26.9375 45.207031 -26.625 C 45.277344 -26.5 45.34375 -26.378906 45.351562 -26.253906 C 45.359375 -26.066406 45.433594 -25.820312 45.441406 -25.628906 L 45.445312 -25.566406 C 45.457031 -25.316406 45.53125 -25.007812 45.546875 -24.695312 C 45.617188 -24.511719 45.4375 -24.3125 45.449219 -24.0625 C 45.460938 -23.8125 45.597656 -23.566406 45.609375 -23.253906 C 45.621094 -23.003906 45.636719 -22.691406 45.585938 -22.4375 C 45.59375 -22.25 45.535156 -22.121094 45.484375 -21.933594 L 45.503906 -21.496094 C 45.511719 -21.304688 45.457031 -21.117188 45.402344 -20.925781 L 45.433594 -20.238281 C 45.382812 -19.984375 45.269531 -19.726562 45.21875 -19.410156 C 45.117188 -18.90625 45.078125 -18.402344 44.972656 -17.957031 C 44.867188 -17.515625 44.695312 -17.128906 44.589844 -16.6875 C 44.539062 -16.433594 44.484375 -16.242188 44.433594 -15.988281 L 44.09375 -15.160156 C 43.867188 -14.648438 43.703125 -14.074219 43.417969 -13.5 C 43.183594 -13.109375 42.949219 -12.722656 42.71875 -12.273438 C 42.488281 -11.886719 42.320312 -11.441406 42.085938 -11.054688 C 41.847656 -10.730469 41.605469 -10.53125 41.433594 -10.210938 C 41.257812 -9.953125 41.144531 -9.632812 40.96875 -9.375 C 40.789062 -9.175781 40.671875 -8.984375 40.554688 -8.789062 C 40.4375 -8.660156 40.253906 -8.589844 40.132812 -8.457031 C 39.832031 -8.132812 39.601562 -7.746094 39.296875 -7.480469 C 39.183594 -7.285156 38.933594 -7.210938 38.753906 -7.078125 C 38.632812 -6.949219 38.578125 -6.757812 38.519531 -6.691406 C 38.335938 -6.558594 38.15625 -6.425781 37.972656 -6.292969 L 37.066406 -5.496094 C 36.644531 -5.164062 36.214844 -4.894531 35.789062 -4.625 C 35.484375 -4.421875 35.246094 -4.160156 34.941406 -3.960938 C 34.820312 -3.890625 34.695312 -3.886719 34.570312 -3.878906 C 34.328125 -3.679688 34.214844 -3.425781 33.96875 -3.289062 C 33.660156 -3.148438 33.292969 -3.007812 32.988281 -2.804688 C 32.738281 -2.730469 32.425781 -2.71875 32.183594 -2.582031 C 31.503906 -2.300781 30.828125 -2.019531 30.085938 -1.796875 C 29.53125 -1.582031 28.914062 -1.367188 28.355469 -1.214844 C 27.917969 -1.132812 27.480469 -1.113281 27.109375 -1.035156 L 26.179688 -0.804688 C 25.992188 -0.796875 25.808594 -0.664062 25.621094 -0.652344 C 25.4375 -0.582031 25.183594 -0.632812 24.996094 -0.625 C 24.683594 -0.550781 24.367188 -0.660156 24.054688 -0.644531 Z M 24.476562 -9.320312 C 26.101562 -9.457031 27.777344 -9.84375 29.371094 -10.667969 C 30.78125 -11.421875 32.042969 -12.609375 33.300781 -13.917969 C 34.492188 -15.289062 35.429688 -16.773438 35.984375 -18.367188 C 36.601562 -19.964844 36.902344 -21.671875 36.878906 -23.550781 C 36.894531 -24.617188 36.71875 -25.738281 36.484375 -26.792969 C 36.191406 -27.722656 35.773438 -28.644531 35.296875 -29.5 C 34.609375 -30.785156 33.742188 -31.9375 32.757812 -32.898438 C 32.234375 -33.4375 31.707031 -33.980469 31.125 -34.390625 C 30.214844 -35.042969 29.1875 -35.558594 28.167969 -35.953125 C 27.210938 -36.347656 26.257812 -36.617188 25.246094 -36.761719 C 24.300781 -36.90625 23.417969 -36.992188 22.480469 -36.949219 C 21.164062 -36.890625 19.859375 -36.644531 18.5625 -36.207031 C 17.515625 -35.785156 16.535156 -35.238281 15.558594 -34.628906 C 14.585938 -33.960938 13.738281 -33.292969 12.960938 -32.445312 C 12.066406 -31.460938 11.234375 -30.359375 10.664062 -29.140625 C 10.207031 -28.179688 9.9375 -27.164062 9.734375 -26.089844 C 9.476562 -24.886719 9.15625 -23.679688 9.207031 -22.492188 C 9.265625 -21.238281 9.632812 -20.0625 9.996094 -18.953125 C 10.363281 -17.777344 10.789062 -16.667969 11.460938 -15.632812 C 12.136719 -14.53125 13.058594 -13.632812 13.972656 -12.796875 C 14.886719 -12.023438 15.921875 -11.316406 17.074219 -10.742188 C 18.230469 -10.167969 19.375 -9.84375 20.703125 -9.589844 C 21.835938 -9.453125 23.039062 -9.253906 24.476562 -9.320312 Z M 24.476562 -9.320312" transform="translate(41.704 58.484)"/></g></g></g><g fill="#262A3D" fill-opacity=".6"><g><g><path d="M 3.105469 -22.066406 C 3.097656 -23.382812 3.03125 -24.761719 3.023438 -26.074219 C 3.019531 -27.453125 3.140625 -28.769531 3.132812 -30.148438 C 3.128906 -31.464844 2.996094 -32.84375 2.992188 -34.15625 L 2.972656 -38.230469 C 2.96875 -39.546875 3.027344 -40.925781 3.019531 -42.238281 C 3.019531 -42.554688 3.019531 -42.804688 3.078125 -43.054688 C 3.140625 -43.304688 3.328125 -43.496094 3.515625 -43.621094 C 3.703125 -43.746094 3.890625 -43.683594 4.140625 -43.75 C 4.644531 -43.8125 5.144531 -43.878906 5.644531 -43.878906 C 7.273438 -43.886719 8.902344 -43.707031 10.53125 -43.710938 C 13.226562 -43.785156 15.167969 -43.855469 15.417969 -43.796875 C 15.734375 -43.796875 16.046875 -43.859375 16.296875 -43.859375 L 16.796875 -43.863281 C 16.984375 -43.800781 17.171875 -43.738281 17.300781 -43.738281 C 17.863281 -43.679688 18.367188 -43.429688 18.867188 -43.308594 C 19.367188 -43.183594 19.871094 -43.0625 20.371094 -42.875 L 21.25 -42.503906 C 21.4375 -42.441406 21.691406 -42.253906 21.878906 -42.128906 C 22.128906 -42.070312 22.320312 -41.945312 22.507812 -41.882812 C 22.570312 -41.820312 22.695312 -41.882812 22.757812 -41.882812 L 24.140625 -40.949219 C 24.328125 -40.761719 24.578125 -40.511719 24.832031 -40.324219 C 25.019531 -40.136719 25.273438 -39.886719 25.523438 -39.703125 C 25.773438 -39.453125 25.902344 -39.140625 26.152344 -38.890625 C 26.40625 -38.578125 26.78125 -38.328125 27.035156 -37.953125 C 27.222656 -37.703125 27.414062 -37.390625 27.601562 -37.078125 C 27.851562 -36.765625 28.042969 -36.453125 28.230469 -36.140625 L 28.296875 -35.890625 C 28.546875 -35.453125 28.675781 -34.953125 28.867188 -34.453125 C 29.054688 -34.015625 29.121094 -33.578125 29.246094 -33.136719 C 29.375 -32.824219 29.5 -32.449219 29.5625 -32.136719 C 29.691406 -31.761719 29.628906 -31.386719 29.695312 -31.011719 C 29.695312 -30.757812 29.882812 -30.511719 29.886719 -30.195312 C 29.886719 -30.195312 29.824219 -30.195312 29.824219 -30.195312 L 29.828125 -28.945312 C 29.828125 -28.691406 29.765625 -28.441406 29.769531 -28.191406 C 29.769531 -28.003906 29.769531 -27.878906 29.769531 -27.753906 L 29.585938 -26.5 C 29.527344 -26.183594 29.527344 -25.871094 29.464844 -25.558594 C 29.34375 -25.121094 29.09375 -24.742188 28.90625 -24.304688 C 28.785156 -23.988281 28.722656 -23.613281 28.597656 -23.300781 C 28.410156 -23.046875 28.289062 -22.734375 28.164062 -22.484375 C 28.039062 -22.230469 27.976562 -21.917969 27.851562 -21.667969 C 27.667969 -21.355469 27.417969 -21.164062 27.230469 -20.914062 C 26.980469 -20.535156 26.730469 -20.160156 26.480469 -19.84375 C 26.421875 -19.71875 26.421875 -19.65625 26.421875 -19.53125 C 26.359375 -19.34375 26.296875 -19.15625 26.421875 -18.96875 C 26.550781 -18.78125 26.675781 -18.59375 26.863281 -18.40625 C 27.117188 -17.96875 27.492188 -17.59375 27.746094 -17.15625 C 27.9375 -16.78125 28.125 -16.34375 28.253906 -15.96875 C 28.378906 -15.71875 28.566406 -15.53125 28.632812 -15.28125 C 28.820312 -14.84375 28.824219 -14.402344 28.949219 -13.902344 C 29.015625 -13.527344 29.265625 -13.089844 29.269531 -12.714844 C 29.332031 -12.464844 29.207031 -12.148438 29.210938 -11.898438 L 29.214844 -10.773438 C 29.21875 -9.207031 29.289062 -7.640625 29.296875 -6.136719 C 29.300781 -4.570312 29.308594 -3.003906 29.316406 -1.5 L 29.316406 -1 C 29.253906 -0.808594 29.191406 -0.621094 29.070312 -0.496094 L 28.882812 -0.308594 C 28.695312 -0.179688 28.445312 -0.117188 28.253906 -0.117188 C 28.191406 -0.117188 28.191406 -0.117188 28.128906 -0.117188 L 21.738281 -0.0898438 C 21.550781 -0.0898438 21.363281 -0.152344 21.175781 -0.214844 C 20.863281 -0.335938 20.546875 -0.523438 20.484375 -0.898438 C 20.484375 -1.023438 20.609375 -1.214844 20.605469 -1.339844 C 20.601562 -2.777344 20.53125 -4.21875 20.527344 -5.660156 C 20.519531 -7.101562 20.578125 -8.542969 20.570312 -9.984375 C 20.507812 -10.359375 20.378906 -10.796875 20.378906 -11.171875 C 20.3125 -11.738281 20.25 -12.238281 20.058594 -12.675781 C 19.871094 -12.988281 19.742188 -13.363281 19.492188 -13.613281 C 19.175781 -13.925781 18.800781 -14.113281 18.359375 -14.296875 C 18.171875 -14.421875 17.921875 -14.421875 17.734375 -14.484375 C 17.355469 -14.542969 16.980469 -14.730469 16.605469 -14.730469 L 16.542969 -14.730469 C 16.039062 -14.726562 15.539062 -14.664062 14.976562 -14.660156 C 14.476562 -14.65625 13.972656 -14.59375 13.410156 -14.589844 L 12.59375 -14.585938 C 12.46875 -14.523438 12.21875 -14.585938 12.09375 -14.460938 C 12.03125 -14.398438 11.96875 -14.335938 11.96875 -14.273438 C 11.90625 -14.144531 11.910156 -13.957031 11.910156 -13.769531 C 11.851562 -12.453125 11.984375 -11.078125 11.988281 -9.761719 C 11.996094 -8.445312 11.9375 -7.066406 11.941406 -5.75 C 11.949219 -4.433594 12.015625 -3.058594 12.023438 -1.742188 C 12.023438 -1.554688 11.898438 -1.425781 11.835938 -1.238281 C 11.835938 -0.988281 11.777344 -0.738281 11.527344 -0.613281 C 11.464844 -0.546875 11.339844 -0.484375 11.148438 -0.421875 C 11.023438 -0.421875 10.835938 -0.359375 10.648438 -0.355469 C 8.582031 -0.347656 6.578125 -0.402344 4.570312 -0.394531 C 4.382812 -0.394531 4.132812 -0.269531 4.007812 -0.328125 C 3.632812 -0.390625 3.441406 -0.703125 3.316406 -1.078125 L 3.125 -1.640625 C 3.125 -1.765625 3.25 -1.957031 3.25 -2.082031 L 3.230469 -7.09375 C 3.222656 -8.785156 3.214844 -10.414062 3.207031 -12.105469 L 3.1875 -17.054688 C 3.179688 -18.746094 3.109375 -20.375 3.105469 -22.066406 Z M 11.847656 -29.183594 C 11.851562 -27.742188 11.921875 -26.363281 11.925781 -24.921875 C 11.925781 -24.734375 11.863281 -24.546875 11.867188 -24.296875 L 11.867188 -24.171875 C 11.867188 -24.042969 11.992188 -23.984375 11.992188 -23.921875 C 12.054688 -23.796875 12.117188 -23.734375 12.246094 -23.609375 C 12.371094 -23.546875 12.496094 -23.421875 12.683594 -23.421875 L 14.1875 -23.429688 C 14.6875 -23.492188 15.191406 -23.433594 15.691406 -23.496094 C 15.941406 -23.496094 16.253906 -23.4375 16.503906 -23.5 C 17.132812 -23.628906 17.632812 -24.007812 18.195312 -24.320312 C 18.507812 -24.511719 18.882812 -24.574219 19.132812 -24.828125 C 19.320312 -25.015625 19.503906 -25.203125 19.691406 -25.457031 C 19.941406 -25.707031 20.128906 -26.148438 20.316406 -26.460938 C 20.5 -26.773438 20.5625 -27.089844 20.6875 -27.402344 C 20.8125 -27.714844 20.933594 -28.03125 20.933594 -28.40625 C 20.996094 -28.65625 21.121094 -28.84375 21.117188 -29.09375 C 21.179688 -29.410156 21.054688 -29.660156 21.050781 -29.972656 C 20.988281 -30.410156 20.859375 -30.785156 20.734375 -31.222656 C 20.605469 -31.597656 20.417969 -32.035156 20.164062 -32.410156 L 19.535156 -33.160156 C 19.347656 -33.410156 18.96875 -33.535156 18.71875 -33.722656 C 18.40625 -33.910156 18.152344 -34.09375 17.839844 -34.28125 L 16.960938 -34.652344 C 16.710938 -34.714844 16.523438 -34.777344 16.269531 -34.777344 C 16.144531 -34.839844 15.957031 -34.964844 15.832031 -34.960938 C 15.644531 -34.960938 15.394531 -34.898438 15.207031 -34.898438 L 12.761719 -34.886719 C 12.636719 -34.886719 12.511719 -34.824219 12.386719 -34.824219 C 12.136719 -34.820312 12.011719 -34.570312 11.949219 -34.382812 C 11.949219 -34.070312 11.828125 -33.820312 11.828125 -33.503906 Z M 11.847656 -29.183594" transform="translate(92.969 56.399)"/></g></g></g><g fill="#262A3D" fill-opacity=".6"><g><g><path d="M 19.28125 -17.261719 C 19.140625 -12.128906 18.933594 -6.933594 18.726562 -1.734375 C 18.707031 -1.109375 18.6875 -0.421875 18.175781 0.00390625 C 17.789062 0.371094 17.222656 0.417969 16.722656 0.402344 C 15.15625 0.421875 13.652344 0.378906 12.152344 0.210938 C 11.589844 0.195312 10.964844 0.117188 10.472656 -0.210938 C 9.917969 -0.601562 9.933594 -1.164062 10.015625 -1.789062 C 10.097656 -2.539062 10.058594 -3.355469 10.078125 -4.105469 L 10.222656 -9.304688 C 10.320312 -12.8125 10.417969 -16.257812 10.515625 -19.765625 L 10.878906 -32.851562 C 10.894531 -33.355469 10.847656 -33.917969 10.542969 -34.304688 C 10.175781 -34.628906 9.613281 -34.707031 9.113281 -34.65625 L 6.917969 -34.71875 C 6.042969 -34.742188 5.042969 -34.832031 4.5 -35.539062 C 4.136719 -36.050781 4.15625 -36.738281 4.171875 -37.363281 C 4.207031 -38.554688 4.242188 -39.804688 4.335938 -40.996094 C 4.359375 -41.871094 4.453125 -42.871094 5.214844 -43.289062 C 5.597656 -43.53125 6.101562 -43.578125 6.601562 -43.5625 C 12.683594 -43.582031 18.757812 -43.414062 24.824219 -42.996094 C 25.261719 -42.984375 25.765625 -42.96875 26.132812 -42.644531 C 26.496094 -42.257812 26.546875 -41.757812 26.59375 -41.253906 C 26.730469 -39.433594 26.679688 -37.617188 26.503906 -35.804688 C 26.429688 -35.367188 26.417969 -34.992188 26.097656 -34.6875 C 25.777344 -34.382812 25.335938 -34.332031 24.894531 -34.28125 C 23.828125 -34.246094 22.765625 -34.277344 21.765625 -34.367188 C 21.324219 -34.378906 20.949219 -34.390625 20.570312 -34.277344 C 19.746094 -33.921875 19.652344 -32.859375 19.628906 -31.984375 C 19.492188 -27.097656 19.421875 -22.210938 19.28125 -17.261719 Z M 19.28125 -17.261719" transform="translate(128.521 56.333)"/></g></g></g><g fill="#262A3D" fill-opacity=".6"><g><g><path d="M 2.871094 -22.613281 C 2.898438 -23.050781 2.984375 -23.488281 3.136719 -23.917969 C 2.828125 -24.0625 3.738281 -26.769531 3.890625 -27.199219 C 4.441406 -29.175781 5.367188 -31.070312 6.40625 -32.765625 C 6.882812 -33.429688 7.363281 -34.152344 7.902344 -34.75 C 9.046875 -36.128906 10.445312 -37.492188 11.882812 -38.539062 C 12.082031 -38.714844 12.277344 -38.828125 12.472656 -38.941406 C 12.539062 -39 12.667969 -39.058594 12.738281 -39.179688 L 14.75 -40.378906 C 14.878906 -40.4375 15.128906 -40.421875 15.261719 -40.539062 C 15.453125 -40.589844 15.648438 -40.707031 15.839844 -40.757812 C 15.90625 -40.816406 15.914062 -40.941406 15.976562 -40.9375 C 15.980469 -41 16.039062 -40.933594 16.101562 -40.929688 C 16.234375 -41.046875 16.429688 -41.164062 16.621094 -41.214844 C 16.753906 -41.332031 16.941406 -41.320312 17.070312 -41.4375 C 17.195312 -41.433594 17.265625 -41.554688 17.328125 -41.550781 C 17.648438 -41.65625 17.964844 -41.703125 18.222656 -41.8125 C 18.476562 -41.859375 18.792969 -41.90625 19.050781 -42.015625 C 19.175781 -42.007812 19.25 -42.191406 19.375 -42.183594 C 19.441406 -42.242188 19.566406 -42.238281 19.691406 -42.230469 C 19.757812 -42.289062 19.878906 -42.21875 19.941406 -42.214844 C 20.070312 -42.269531 20.195312 -42.261719 20.324219 -42.320312 C 20.449219 -42.3125 20.582031 -42.429688 20.710938 -42.484375 C 20.839844 -42.539062 20.964844 -42.53125 21.089844 -42.527344 L 22.355469 -42.765625 C 22.609375 -42.75 22.921875 -42.734375 23.238281 -42.777344 C 23.425781 -42.769531 23.617188 -42.882812 23.808594 -42.871094 C 24.121094 -42.914062 24.371094 -42.839844 24.6875 -42.882812 C 25.378906 -42.90625 26.054688 -42.679688 26.394531 -42.03125 C 26.507812 -41.835938 26.492188 -41.585938 26.546875 -41.394531 C 26.609375 -40.324219 26.609375 -39.257812 26.550781 -38.195312 C 26.511719 -37.570312 26.476562 -36.945312 26.382812 -36.382812 C 26.25 -35.199219 25.9375 -34.089844 24.550781 -33.980469 L 24.300781 -33.996094 C 24.171875 -33.9375 24.050781 -34.007812 23.925781 -34.015625 L 23.039062 -33.878906 C 19.363281 -33.273438 15.84375 -31.03125 13.84375 -27.882812 C 13.703125 -27.640625 13.691406 -27.386719 13.550781 -27.144531 L 13.273438 -26.722656 C 13.265625 -26.597656 13.390625 -26.527344 13.386719 -26.464844 C 13.378906 -26.339844 13.308594 -26.21875 13.425781 -26.085938 C 13.480469 -25.957031 13.597656 -25.824219 13.722656 -25.753906 C 13.96875 -25.679688 14.160156 -25.730469 14.410156 -25.714844 C 14.660156 -25.699219 14.96875 -25.621094 15.21875 -25.605469 C 15.28125 -25.601562 15.28125 -25.601562 15.28125 -25.601562 L 15.46875 -25.589844 C 15.535156 -25.652344 15.589844 -25.523438 15.652344 -25.519531 C 16.839844 -25.449219 18.03125 -25.382812 19.222656 -25.375 C 19.847656 -25.339844 20.410156 -25.308594 20.976562 -25.335938 C 21.476562 -25.308594 21.96875 -25.15625 22.46875 -25.125 L 22.59375 -25.117188 C 23.035156 -25.09375 23.660156 -25.058594 24.027344 -24.910156 C 24.085938 -24.84375 24.085938 -24.84375 24.148438 -24.839844 C 24.507812 -24.570312 24.738281 -24.179688 24.773438 -23.738281 C 24.824219 -23.484375 24.804688 -23.171875 24.792969 -22.921875 C 24.765625 -22.484375 24.738281 -21.984375 24.710938 -21.542969 L 24.578125 -19.230469 C 24.574219 -19.167969 24.507812 -19.109375 24.507812 -19.109375 C 24.503906 -19.046875 24.625 -18.976562 24.621094 -18.851562 C 24.578125 -18.164062 24.515625 -17.039062 23.859375 -16.574219 C 23.339844 -16.226562 22.835938 -16.191406 22.273438 -16.226562 C 21.894531 -16.246094 21.582031 -16.265625 21.210938 -16.347656 C 20.089844 -16.476562 18.832031 -16.425781 17.707031 -16.488281 C 16.453125 -16.5625 15.269531 -16.691406 14.082031 -16.761719 C 13.832031 -16.773438 13.519531 -16.792969 13.261719 -16.683594 C 13.070312 -16.628906 12.9375 -16.511719 12.867188 -16.390625 C 12.734375 -16.273438 12.664062 -16.152344 12.660156 -16.027344 C 12.652344 -15.902344 12.582031 -15.78125 12.636719 -15.652344 C 12.625 -15.464844 12.742188 -15.332031 12.859375 -15.136719 C 12.855469 -15.074219 12.851562 -15.011719 12.847656 -14.949219 L 13.242188 -14.171875 C 13.40625 -13.785156 13.765625 -13.453125 13.992188 -13.0625 C 14.394531 -12.410156 14.871094 -11.945312 15.402344 -11.351562 C 15.640625 -11.148438 15.746094 -10.828125 15.984375 -10.5625 C 16.582031 -10.027344 17.492188 -9.535156 18.21875 -9.054688 C 19.25 -8.429688 20.410156 -7.859375 21.582031 -7.542969 C 21.703125 -7.472656 21.890625 -7.460938 22.078125 -7.449219 C 22.328125 -7.375 22.578125 -7.359375 22.761719 -7.285156 C 23.070312 -7.207031 23.316406 -7.128906 23.621094 -6.984375 C 23.804688 -6.914062 23.925781 -6.78125 24.101562 -6.582031 C 24.21875 -6.449219 24.339844 -6.378906 24.394531 -6.25 C 24.566406 -5.925781 24.554688 -5.738281 24.542969 -5.550781 C 24.535156 -5.425781 24.527344 -5.300781 24.523438 -5.175781 L 24.507812 -4.925781 C 24.542969 -4.421875 24.511719 -3.921875 24.484375 -3.421875 C 24.449219 -2.859375 24.421875 -2.359375 24.328125 -1.800781 C 24.296875 -1.296875 24.269531 -0.796875 24.179688 -0.300781 C 24.15625 0.0742188 24.1875 0.640625 24.042969 0.945312 C 24.035156 1.070312 23.902344 1.1875 23.835938 1.308594 L 23.640625 1.425781 C 23.574219 1.484375 23.382812 1.535156 23.320312 1.53125 C 22.933594 1.699219 22.617188 1.742188 22.304688 1.722656 C 22.054688 1.710938 21.804688 1.695312 21.625 1.558594 C 21.375 1.484375 21.125 1.53125 20.871094 1.515625 C 20.5 1.433594 20.128906 1.347656 19.824219 1.203125 C 19.761719 1.203125 19.632812 1.257812 19.574219 1.191406 C 19.324219 1.175781 19.148438 0.976562 18.898438 0.902344 C 18.777344 0.832031 18.582031 0.945312 18.398438 0.871094 C 18.089844 0.792969 17.722656 0.644531 17.417969 0.5 C 16.804688 0.214844 16.199219 -0.132812 15.582031 -0.355469 C 15.03125 -0.578125 14.476562 -0.734375 13.988281 -1.015625 C 13.867188 -1.082031 13.75 -1.214844 13.882812 -1.332031 C 13.488281 -1.042969 11.703125 -2.714844 11.464844 -2.917969 C 11.222656 -3.054688 10.972656 -3.132812 10.734375 -3.335938 C 10.558594 -3.535156 10.320312 -3.734375 10.078125 -3.9375 C 9.601562 -4.34375 9.195312 -4.929688 8.71875 -5.398438 C 7.886719 -6.199219 7.074219 -7.3125 6.375 -8.292969 L 5.917969 -9.007812 C 5.6875 -9.398438 5.585938 -9.84375 5.363281 -10.296875 C 5.25 -10.492188 5.128906 -10.625 5.015625 -10.820312 L 4.96875 -11.074219 C 4.628906 -11.71875 4.230469 -12.433594 4.015625 -13.074219 C 3.8125 -13.898438 3.480469 -14.671875 3.335938 -15.433594 L 3.183594 -16.070312 C 3.132812 -16.261719 3.207031 -16.445312 3.15625 -16.636719 C 3.105469 -16.890625 3.117188 -17.078125 3.132812 -17.328125 C 3.082031 -17.582031 2.90625 -17.78125 2.859375 -18.035156 C 2.816406 -18.414062 2.839844 -18.789062 2.796875 -19.167969 C 2.765625 -19.671875 2.789062 -20.109375 2.820312 -20.609375 C 2.792969 -21.238281 2.832031 -21.925781 2.871094 -22.613281 Z M 2.871094 -22.613281" transform="translate(160.605 57.286)"/></g></g></g><g fill="#262A3D" fill-opacity=".6"><g><g><path d="M 29.878906 -32.144531 C 29.6875 -29.269531 29.441406 -26.460938 29.195312 -23.652344 C 29.171875 -23.402344 29.085938 -23.160156 29.066406 -22.910156 C 29.046875 -22.722656 28.96875 -22.539062 28.886719 -22.296875 C 28.875 -22.171875 28.925781 -22.042969 28.851562 -21.921875 C 28.671875 -21.308594 28.429688 -20.699219 28.125 -20.097656 C 27.886719 -19.554688 27.652344 -19.007812 27.296875 -18.535156 L 26.792969 -17.828125 C 26.582031 -17.59375 26.3125 -17.367188 26.097656 -17.070312 L 25.816406 -16.71875 C 25.734375 -16.535156 25.78125 -16.34375 25.832031 -16.214844 C 25.878906 -16.019531 26.054688 -15.878906 26.164062 -15.679688 C 26.273438 -15.484375 26.503906 -15.273438 26.613281 -15.074219 C 26.773438 -14.746094 26.800781 -14.367188 26.960938 -14.039062 C 27.058594 -13.714844 27.15625 -13.390625 27.257812 -13.132812 L 27.40625 -12.679688 C 27.550781 -12.160156 27.632812 -11.652344 27.710938 -11.140625 C 27.804688 -10.757812 27.890625 -10.308594 27.921875 -9.929688 C 27.964844 -9.734375 27.886719 -9.554688 27.875 -9.429688 C 27.84375 -8.363281 27.632812 -7.375 27.542969 -6.375 C 27.421875 -5.003906 27.371094 -3.6875 27.25 -2.3125 C 27.128906 -0.941406 26.949219 0.363281 26.828125 1.738281 C 26.824219 1.800781 26.875 1.929688 26.863281 2.054688 C 26.789062 2.171875 26.714844 2.292969 26.53125 2.277344 C 26.460938 2.332031 26.332031 2.386719 26.269531 2.378906 L 24.023438 2.179688 C 22.523438 2.050781 20.976562 1.785156 19.476562 1.65625 C 19.351562 1.644531 19.289062 1.636719 19.171875 1.566406 C 19.046875 1.554688 18.859375 1.539062 18.808594 1.40625 C 18.753906 1.277344 18.890625 1.164062 18.902344 1.039062 C 18.90625 0.976562 18.789062 0.902344 18.800781 0.777344 C 18.933594 -0.71875 19.070312 -2.28125 19.207031 -3.839844 L 19.621094 -8.523438 C 19.632812 -8.648438 19.761719 -8.699219 19.773438 -8.824219 L 19.785156 -8.949219 C 19.792969 -9.074219 19.742188 -9.203125 19.75 -9.265625 C 19.707031 -9.519531 19.785156 -9.703125 19.742188 -9.894531 C 19.757812 -10.082031 19.71875 -10.335938 19.613281 -10.597656 L 19.476562 -11.175781 C 19.261719 -11.574219 18.96875 -11.847656 18.679688 -12.125 C 18.507812 -12.332031 18.34375 -12.597656 18.105469 -12.742188 C 17.867188 -12.890625 17.503906 -13.046875 17.195312 -13.136719 C 17.015625 -13.21875 16.820312 -13.171875 16.636719 -13.1875 L 16.390625 -13.273438 C 16.140625 -13.292969 15.949219 -13.25 15.695312 -13.207031 C 15.3125 -13.179688 14.9375 -13.210938 14.617188 -13.113281 C 14.289062 -12.953125 14.082031 -12.785156 13.8125 -12.554688 C 13.410156 -12.277344 13.058594 -11.867188 12.832031 -11.445312 C 12.617188 -11.152344 12.523438 -10.78125 12.433594 -10.476562 C 12.332031 -10.042969 12.113281 -9.6875 12.074219 -9.25 C 11.9375 -7.691406 11.855469 -6.0625 11.710938 -4.4375 C 11.574219 -2.878906 11.433594 -1.257812 11.289062 0.367188 L 11.203125 0.609375 C 11.125 0.792969 11.113281 0.917969 10.984375 0.96875 C 10.859375 0.957031 10.738281 0.882812 10.675781 0.878906 C 9.617188 0.785156 8.605469 0.820312 7.546875 0.726562 C 6.296875 0.617188 5.0625 0.382812 3.8125 0.273438 C 3.75 0.269531 3.613281 0.382812 3.550781 0.375 C 3.371094 0.296875 3.195312 0.15625 3.203125 0.03125 C 3.152344 -0.0976562 3.289062 -0.214844 3.300781 -0.339844 C 3.304688 -0.398438 3.25 -0.46875 3.253906 -0.53125 L 3.683594 -5.398438 C 3.828125 -7.019531 3.90625 -8.648438 4.050781 -10.273438 C 4.066406 -10.460938 4.144531 -10.640625 4.164062 -10.828125 C 4.171875 -10.953125 4.128906 -11.144531 4.199219 -11.265625 C 4.222656 -11.515625 4.238281 -11.703125 4.320312 -11.882812 C 4.351562 -12.257812 4.507812 -12.621094 4.667969 -12.984375 C 4.679688 -13.109375 4.695312 -13.296875 4.769531 -13.417969 C 4.863281 -13.785156 5.089844 -14.207031 5.246094 -14.570312 C 5.40625 -14.933594 5.5625 -15.296875 5.777344 -15.589844 L 6.28125 -16.300781 C 6.347656 -16.359375 6.308594 -16.613281 6.4375 -16.664062 C 6.660156 -17.023438 7.054688 -17.238281 7.335938 -17.59375 C 7.472656 -17.707031 7.621094 -17.945312 7.640625 -18.195312 C 7.660156 -18.382812 7.421875 -18.527344 7.367188 -18.660156 C 7.265625 -18.917969 7.09375 -19.125 6.988281 -19.320312 L 6.683594 -20.164062 C 6.417969 -20.691406 6.148438 -21.21875 6.003906 -21.734375 C 5.851562 -22.125 5.695312 -22.515625 5.605469 -22.902344 C 5.5625 -23.15625 5.710938 -23.394531 5.671875 -23.652344 C 5.636719 -23.96875 5.46875 -24.234375 5.5 -24.546875 C 5.464844 -24.863281 5.421875 -25.121094 5.445312 -25.371094 C 5.46875 -25.621094 5.484375 -25.804688 5.503906 -26.054688 L 5.542969 -26.492188 C 5.660156 -27.804688 5.71875 -29.183594 5.839844 -30.554688 L 6.191406 -34.550781 C 6.3125 -35.921875 6.496094 -37.289062 6.613281 -38.601562 C 6.734375 -39.972656 6.910156 -41.277344 7.03125 -42.652344 C 7.042969 -42.777344 7.054688 -42.902344 7.128906 -43.019531 C 7.210938 -43.265625 7.28125 -43.320312 7.472656 -43.367188 C 7.535156 -43.363281 7.589844 -43.292969 7.589844 -43.292969 C 8.777344 -43.1875 9.910156 -43.214844 11.097656 -43.109375 C 12.222656 -43.011719 13.402344 -42.84375 14.523438 -42.746094 C 14.648438 -42.734375 14.707031 -42.667969 14.832031 -42.65625 C 14.949219 -42.582031 14.945312 -42.519531 14.992188 -42.328125 C 14.980469 -42.203125 15.09375 -42.066406 15.082031 -41.941406 C 14.96875 -40.632812 14.910156 -39.253906 14.792969 -37.941406 C 14.671875 -36.570312 14.492188 -35.265625 14.378906 -33.953125 L 14.019531 -29.898438 C 13.90625 -28.585938 13.722656 -27.21875 13.605469 -25.90625 C 13.582031 -25.65625 13.554688 -25.347656 13.597656 -25.089844 C 13.578125 -24.902344 13.625 -24.710938 13.613281 -24.585938 C 13.660156 -24.394531 13.769531 -24.195312 13.816406 -24.003906 C 13.921875 -23.804688 13.964844 -23.550781 14.070312 -23.351562 C 14.117188 -23.15625 14.230469 -23.023438 14.34375 -22.886719 C 14.511719 -22.621094 14.8125 -22.46875 15.105469 -22.253906 C 15.339844 -22.042969 15.566406 -21.773438 15.875 -21.683594 C 16.054688 -21.605469 16.25 -21.648438 16.429688 -21.570312 C 16.613281 -21.492188 16.738281 -21.480469 16.925781 -21.464844 C 17.238281 -21.4375 17.542969 -21.347656 17.929688 -21.4375 C 18.5 -21.515625 19.023438 -21.71875 19.492188 -22.054688 C 19.558594 -22.113281 19.683594 -22.101562 19.820312 -22.214844 C 20.296875 -22.613281 20.65625 -23.148438 20.898438 -23.753906 C 20.980469 -23.9375 21.125 -24.175781 21.148438 -24.425781 C 21.164062 -24.613281 21.125 -24.867188 21.144531 -25.117188 C 21.144531 -25.117188 21.207031 -25.113281 21.152344 -25.179688 C 21.164062 -25.304688 21.234375 -25.421875 21.253906 -25.609375 L 21.710938 -30.789062 C 21.863281 -32.539062 21.957031 -34.292969 22.109375 -36.039062 C 22.261719 -37.785156 22.355469 -39.539062 22.507812 -41.285156 C 22.519531 -41.410156 22.597656 -41.59375 22.671875 -41.710938 C 22.75 -41.894531 22.882812 -41.945312 23.074219 -41.992188 C 23.136719 -41.984375 23.203125 -42.042969 23.203125 -42.042969 C 24.390625 -41.9375 25.507812 -41.777344 26.695312 -41.671875 C 27.878906 -41.566406 28.996094 -41.40625 30.183594 -41.300781 L 30.371094 -41.285156 C 30.550781 -41.207031 30.671875 -41.132812 30.65625 -40.945312 C 30.710938 -40.878906 30.640625 -40.757812 30.628906 -40.632812 C 30.5 -39.199219 30.375 -37.761719 30.253906 -36.390625 Z M 29.878906 -32.144531" transform="translate(191.382 59.09)"/></g></g></g></svg>