<svg xmlns="http://www.w3.org/2000/svg" xmlns:xlink="http://www.w3.org/1999/xlink" width="375" viewBox="0 0 375 375" height="375" version="1.0"><defs><clipPath id="b"><path d="M 21 133 L 115 133 L 115 226 L 21 226 Z M 21 133"/></clipPath><clipPath id="c"><path d="M 21.765625 126.695312 L 118.265625 133.640625 L 111.539062 227.148438 L 15.039062 220.203125 Z M 21.765625 126.695312"/></clipPath><clipPath id="d"><path d="M 21.765625 126.695312 L 118.265625 133.640625 L 111.539062 227.148438 L 15.039062 220.203125 Z M 21.765625 126.695312"/></clipPath><clipPath id="e"><path d="M 23.140625 131.691406 L 117.90625 138.511719 L 111.515625 227.320312 L 16.753906 220.5 Z M 23.140625 131.691406"/></clipPath><clipPath id="f"><path d="M 23.140625 131.691406 L 117.90625 138.511719 L 111.527344 227.148438 L 16.765625 220.328125 Z M 23.140625 131.691406"/></clipPath><clipPath id="g"><path d="M 34 128 L 45 128 L 45 132 L 34 132 Z M 34 128"/></clipPath><clipPath id="h"><path d="M 21.765625 126.695312 L 118.265625 133.640625 L 111.539062 227.148438 L 15.039062 220.203125 Z M 21.765625 126.695312"/></clipPath><clipPath id="i"><path d="M 21.765625 126.695312 L 118.265625 133.640625 L 111.539062 227.148438 L 15.039062 220.203125 Z M 21.765625 126.695312"/></clipPath><clipPath id="j"><path d="M 69 133 L 82 133 L 82 139 L 69 139 Z M 69 133"/></clipPath><clipPath id="k"><path d="M 21.765625 126.695312 L 118.265625 133.640625 L 111.539062 227.148438 L 15.039062 220.203125 Z M 21.765625 126.695312"/></clipPath><clipPath id="l"><path d="M 21.765625 126.695312 L 118.265625 133.640625 L 111.539062 227.148438 L 15.039062 220.203125 Z M 21.765625 126.695312"/></clipPath><clipPath id="m"><path d="M 17 183 L 34 183 L 34 206 L 17 206 Z M 17 183"/></clipPath><clipPath id="n"><path d="M 21.765625 126.695312 L 118.265625 133.640625 L 111.539062 227.148438 L 15.039062 220.203125 Z M 21.765625 126.695312"/></clipPath><clipPath id="o"><path d="M 21.765625 126.695312 L 118.265625 133.640625 L 111.539062 227.148438 L 15.039062 220.203125 Z M 21.765625 126.695312"/></clipPath><clipPath id="p"><path d="M 25 204 L 35 204 L 35 214 L 25 214 Z M 25 204"/></clipPath><clipPath id="q"><path d="M 21.765625 126.695312 L 118.265625 133.640625 L 111.539062 227.148438 L 15.039062 220.203125 Z M 21.765625 126.695312"/></clipPath><clipPath id="r"><path d="M 21.765625 126.695312 L 118.265625 133.640625 L 111.539062 227.148438 L 15.039062 220.203125 Z M 21.765625 126.695312"/></clipPath><linearGradient x1="1" gradientTransform="matrix(375 0 0 375 0 0)" y1=".5" x2="0" gradientUnits="userSpaceOnUse" y2=".5" xlink:type="simple" xlink:actuate="onLoad" id="a" xlink:show="other"><stop stop-color="#9F54FC" offset="0"/><stop stop-color="#9F54FC" offset=".016"/><stop stop-color="#9E54FC" offset=".031"/><stop stop-color="#9D54FC" offset=".047"/><stop stop-color="#9C54FC" offset=".063"/><stop stop-color="#9C54FC" offset=".078"/><stop stop-color="#9B54FC" offset=".094"/><stop stop-color="#9A54FC" offset=".109"/><stop stop-color="#9954FC" offset=".125"/><stop stop-color="#9954FC" offset=".141"/><stop stop-color="#9854FC" offset=".156"/><stop stop-color="#9755FC" offset=".172"/><stop stop-color="#9655FC" offset=".188"/><stop stop-color="#9655FD" offset=".203"/><stop stop-color="#9555FD" offset=".219"/><stop stop-color="#9455FD" offset=".234"/><stop stop-color="#9355FD" offset=".25"/><stop stop-color="#9355FD" offset=".266"/><stop stop-color="#9255FD" offset=".281"/><stop stop-color="#9155FD" offset=".297"/><stop stop-color="#9055FD" offset=".313"/><stop stop-color="#9055FD" offset=".328"/><stop stop-color="#8F55FD" offset=".344"/><stop stop-color="#8E55FD" offset=".359"/><stop stop-color="#8D55FD" offset=".375"/><stop stop-color="#8D55FD" offset=".391"/><stop stop-color="#8C56FD" offset=".406"/><stop stop-color="#8B56FD" offset=".422"/><stop stop-color="#8A56FD" offset=".438"/><stop stop-color="#8A56FD" offset=".453"/><stop stop-color="#8956FD" offset=".469"/><stop stop-color="#8856FD" offset=".484"/><stop stop-color="#8756FD" offset=".5"/><stop stop-color="#8756FD" offset=".516"/><stop stop-color="#8656FE" offset=".531"/><stop stop-color="#8556FE" offset=".547"/><stop stop-color="#8456FE" offset=".563"/><stop stop-color="#8456FE" offset=".578"/><stop stop-color="#8356FE" offset=".594"/><stop stop-color="#8256FE" offset=".609"/><stop stop-color="#8156FE" offset=".625"/><stop stop-color="#8156FE" offset=".641"/><stop stop-color="#8057FE" offset=".656"/><stop stop-color="#7F57FE" offset=".672"/><stop stop-color="#7E57FE" offset=".688"/><stop stop-color="#7E57FE" offset=".703"/><stop stop-color="#7D57FE" offset=".719"/><stop stop-color="#7C57FE" offset=".734"/><stop stop-color="#7B57FE" offset=".75"/><stop stop-color="#7B57FE" offset=".766"/><stop stop-color="#7A57FE" offset=".781"/><stop stop-color="#7957FE" offset=".797"/><stop stop-color="#7857FE" offset=".813"/><stop stop-color="#7857FE" offset=".828"/><stop stop-color="#7757FE" offset=".844"/><stop stop-color="#7657FF" offset=".859"/><stop stop-color="#7557FF" offset=".875"/><stop stop-color="#7557FF" offset=".891"/><stop stop-color="#7458FF" offset=".906"/><stop stop-color="#7358FF" offset=".922"/><stop stop-color="#7258FF" offset=".938"/><stop stop-color="#7258FF" offset=".953"/><stop stop-color="#7158FF" offset=".969"/><stop stop-color="#7058FF" offset=".984"/><stop stop-color="#6F58FF" offset="1"/></linearGradient></defs><path fill="#FFF" d="M-37.5 -37.5H412.5V412.5H-37.5z"/><path fill="#FFF" d="M-37.5 -37.5H412.5V412.5H-37.5z"/><path d="M-37.5 -37.5H412.5V412.5H-37.5z"/><path fill="url(#a)" d="M-37.5 -37.5H412.5V412.5H-37.5z"/><g clip-path="url(#b)"><g clip-path="url(#c)"><g clip-path="url(#d)"><g clip-path="url(#e)"><g clip-path="url(#f)"><path fill="#FFF" d="M 85.882812 159.019531 C 83.113281 157.929688 80.433594 156.871094 77.507812 156.230469 C 74.628906 155.601562 71.824219 155.710938 68.910156 155.789062 C 70.988281 153.96875 73.988281 154.050781 76.542969 154.480469 C 79.949219 155.050781 83.253906 156.804688 85.882812 159.019531 Z M 43.96875 166.003906 C 44.972656 167.03125 45.902344 168.128906 46.9375 169.128906 C 47.683594 169.847656 48.46875 170.53125 49.207031 171.253906 C 52.050781 173.800781 55.25 176.035156 58.605469 177.839844 C 60.089844 178.640625 61.605469 179.355469 63.152344 180.019531 C 64.921875 180.78125 66.757812 181.300781 68.570312 181.9375 C 63.511719 182.535156 58.121094 180.316406 54.011719 177.507812 C 49.800781 174.632812 45.878906 170.851562 43.96875 166.003906 Z M 100.785156 175.734375 C 103.140625 178.894531 105.101562 182.3125 106.671875 185.933594 C 103.539062 179.585938 99.175781 173.765625 93.640625 169.34375 C 90.796875 167.074219 87.628906 165.113281 84.195312 163.894531 C 81.148438 162.8125 77.671875 162.269531 74.574219 163.472656 C 75.464844 163.84375 76.308594 164.3125 77.105469 164.859375 C 77.898438 165.402344 78.554688 166.144531 79.347656 166.671875 C 80.902344 167.699219 82.367188 168.882812 83.71875 170.167969 C 86.417969 172.738281 88.75 175.726562 90.519531 179.019531 C 94.105469 185.691406 95.558594 194.117188 92.652344 201.316406 C 90.863281 205.75 87.621094 209.078125 83.582031 211.496094 C 86.421875 209.375 88.761719 206.796875 90.34375 203.59375 C 92.164062 199.902344 92.78125 195.738281 92.40625 191.660156 C 91.742188 184.457031 88.234375 177.675781 82.953125 172.804688 C 83.179688 173.714844 83.273438 174.671875 83.148438 175.605469 C 83.089844 176.035156 82.988281 176.464844 82.828125 176.871094 C 82.640625 177.347656 82.683594 177.75 82.671875 178.257812 C 82.625 180.28125 82.210938 182.269531 81.3125 184.09375 C 79.984375 186.777344 77.730469 188.824219 75.023438 190.03125 C 67.117188 193.558594 57.535156 191.128906 50.167969 187.402344 C 44.6875 184.625 39.792969 180.824219 35.597656 176.335938 C 41.261719 181.707031 48.183594 186.074219 55.734375 188.148438 C 62.597656 190.03125 72.675781 190.457031 77.113281 183.628906 C 77.851562 182.492188 78.371094 181.210938 78.652344 179.882812 C 77.699219 179.988281 76.734375 179.890625 75.804688 179.671875 C 75.3125 179.558594 75.011719 179.601562 74.507812 179.601562 C 73.953125 179.605469 73.277344 179.378906 72.726562 179.332031 C 70.734375 179.160156 68.773438 178.679688 66.890625 178.011719 C 63.347656 176.761719 60.082031 174.835938 57.125 172.527344 C 51.308594 167.980469 46.296875 161.152344 44.84375 153.789062 C 43.933594 149.199219 44.632812 144.257812 47.804688 140.667969 C 41.785156 149.976562 48.675781 161.777344 55.8125 168.179688 C 59.359375 171.363281 63.660156 173.875 68.328125 174.910156 C 67.394531 173.816406 66.617188 172.566406 65.75 171.417969 C 64.582031 169.867188 63.59375 168.160156 62.804688 166.386719 C 61.34375 163.113281 60.464844 159.171875 61.460938 155.632812 C 62.425781 152.214844 65.128906 149.765625 68.453125 148.726562 C 72.160156 147.550781 76.234375 148.066406 79.90625 149.105469 C 81.796875 149.644531 83.617188 150.378906 85.40625 151.199219 C 80.277344 149.183594 73.746094 147.53125 68.652344 150.519531 C 63.277344 153.675781 63.457031 160.234375 65.878906 165.25 C 66.148438 164.714844 66.507812 164.265625 66.953125 163.875 C 67.339844 163.40625 67.703125 162.941406 68.164062 162.546875 C 69.636719 161.277344 71.429688 160.527344 73.339844 160.21875 C 76.355469 159.730469 79.429688 160.269531 82.285156 161.265625 C 89.722656 163.847656 96.121094 169.484375 100.785156 175.734375 Z M 99.246094 192.636719 C 98.167969 189.511719 97.25 186.359375 96.039062 183.28125 C 94.804688 180.140625 93.183594 177.207031 91.785156 174.148438 C 94.195312 176.574219 96.070312 179.535156 97.441406 182.664062 C 98.761719 185.679688 99.824219 189.308594 99.246094 192.636719 Z M 86.046875 182.570312 C 85.914062 181.34375 85.617188 180.160156 85.414062 178.949219 C 87.183594 181.292969 88.296875 184.273438 88.179688 187.238281 C 88.066406 190.113281 86.691406 193.09375 83.695312 193.8125 C 84.230469 192.683594 84.820312 191.636719 85.257812 190.460938 C 85.707031 189.25 85.988281 187.894531 86.089844 186.609375 C 86.191406 185.257812 86.191406 183.917969 86.046875 182.570312 Z M 70.351562 200.226562 C 68.167969 200.195312 65.925781 199.308594 64.296875 197.847656 C 64.257812 197.8125 64.214844 197.777344 64.179688 197.738281 C 66.152344 197.457031 68.238281 197.578125 70.226562 197.53125 C 72.113281 197.460938 74.0625 197.203125 75.945312 197.332031 C 75 199.480469 72.523438 200.261719 70.351562 200.226562 Z M 55.699219 148.617188 C 57.382812 146.980469 59.546875 146.460938 61.816406 146.828125 C 61.121094 147.304688 60.367188 147.683594 59.675781 148.175781 C 58.898438 148.683594 58.246094 149.378906 57.613281 150.050781 C 56.910156 150.929688 56.339844 151.847656 55.800781 152.835938 C 55.476562 153.542969 55.199219 154.28125 54.84375 154.96875 C 54 152.789062 54.210938 150.445312 55.699219 148.617188 Z M 110.714844 196.273438 C 111.15625 198.226562 111.484375 201.09375 109.855469 202.601562 C 109.496094 200.550781 109.378906 198.449219 109.066406 196.390625 C 108.707031 194.390625 108.199219 192.40625 107.875 190.402344 C 109.246094 192.070312 110.234375 194.160156 110.714844 196.273438 Z M 112.648438 180.667969 C 111.1875 176.4375 109.035156 172.449219 106.546875 168.746094 C 101.480469 161.207031 94.839844 154.597656 87.140625 149.789062 C 77.375 143.691406 63.585938 138.957031 52.652344 144.828125 C 56.03125 137.957031 65.378906 138.496094 71.59375 140.050781 C 78.445312 141.765625 85.660156 145.015625 90.316406 150.515625 C 89.144531 149.011719 87.820312 147.628906 86.398438 146.355469 C 79.917969 140.535156 71.472656 136.511719 62.925781 134.972656 C 54.566406 133.46875 44.929688 134.539062 39.394531 141.765625 C 32.089844 151.308594 35.828125 164.550781 41.339844 173.941406 C 35.0625 168.460938 29.976562 160.5 29.664062 151.945312 C 29.355469 143.46875 34.6875 133.738281 44.097656 133.976562 C 44.617188 133.988281 45.140625 134.03125 45.65625 134.097656 C 41.507812 133.335938 37.167969 133.691406 33.300781 135.445312 C 29.207031 137.300781 25.917969 140.621094 23.953125 144.667969 C 20.253906 152.289062 21.316406 161.386719 24.386719 169.015625 C 27.75 177.371094 33.609375 184.640625 40.351562 190.5 C 47.109375 196.371094 55.074219 201.101562 63.691406 203.589844 C 68.992188 205.121094 74.605469 205.785156 80.097656 205.097656 C 73.027344 210.40625 63.0625 209.503906 55.175781 206.804688 C 46.722656 203.902344 38.910156 198.703125 32.523438 192.464844 C 27.542969 187.597656 22.019531 180.679688 22.722656 173.21875 C 21.101562 181.707031 25.75 190.394531 30.800781 196.839844 C 36.359375 203.929688 43.59375 209.75 51.5625 213.886719 C 59.117188 217.808594 67.667969 220.398438 76.234375 220.109375 C 84.851562 219.820312 93.324219 216.128906 98.402344 208.921875 C 103.167969 202.167969 103.964844 193.664062 102.394531 185.714844 C 106.410156 193.527344 107.667969 203.035156 104.023438 211.234375 C 100.648438 218.832031 92.90625 225.925781 84.082031 224.09375 C 83.125 223.894531 82.191406 223.597656 81.289062 223.226562 C 85.003906 225.101562 89.199219 225.984375 93.347656 225.484375 C 97.625 224.964844 101.625 223.007812 104.753906 220.042969 C 111.195312 213.929688 113.1875 204.5625 112.226562 195.980469 C 111.28125 187.554688 107.679688 179.515625 102.980469 172.550781 C 98.277344 165.578125 92.242188 159.5625 85.257812 154.902344 C 93.050781 157.648438 99.574219 163.691406 104.507812 170.1875 C 107.105469 173.605469 109.414062 177.308594 111.230469 181.210938 C 112.820312 184.632812 114.59375 189.027344 113.519531 192.851562 C 115.046875 189.015625 113.9375 184.40625 112.648438 180.667969"/></g></g></g></g></g><g clip-path="url(#g)"><g clip-path="url(#h)"><g clip-path="url(#i)"><path fill="#FFF" d="M 34.121094 131.003906 C 38.234375 130.207031 40.785156 130.050781 44.898438 129.253906 C 41.304688 128.097656 37.175781 128.769531 34.121094 131.003906"/></g></g></g><g clip-path="url(#j)"><g clip-path="url(#k)"><g clip-path="url(#l)"><path fill="#FFF" d="M 69.769531 133.816406 C 74.03125 134.6875 78.160156 136.226562 81.953125 138.363281 C 78.933594 135.007812 74.238281 133.253906 69.769531 133.816406"/></g></g></g><g clip-path="url(#m)"><g clip-path="url(#n)"><g clip-path="url(#o)"><path fill="#FFF" d="M 17.664062 183.859375 C 18.515625 193.242188 24.933594 201.894531 33.636719 205.390625 C 26.597656 199.746094 21.039062 192.25 17.664062 183.859375"/></g></g></g><g clip-path="url(#p)"><g clip-path="url(#q)"><g clip-path="url(#r)"><path fill="#FFF" d="M 25.460938 204.230469 C 26.792969 208.953125 29.851562 212.308594 34.683594 213.011719 C 31.054688 210.761719 27.894531 207.753906 25.460938 204.230469"/></g></g></g><g fill="#262A3D" fill-opacity=".6"><g><g><path d="M 26.535156 -22.960938 C 26.621094 -21.636719 26.714844 -20.25 26.804688 -18.925781 L 27.078125 -14.890625 C 27.164062 -13.566406 27.320312 -12.183594 27.40625 -10.859375 L 27.679688 -6.824219 C 27.773438 -5.4375 27.921875 -4.117188 28.011719 -2.789062 C 28.023438 -2.609375 27.910156 -2.480469 27.917969 -2.359375 C 27.929688 -2.179688 27.761719 -1.988281 27.582031 -1.976562 C 27.460938 -1.96875 27.34375 -1.898438 27.21875 -1.949219 L 27.046875 -1.816406 C 25.601562 -1.722656 24.148438 -1.746094 22.640625 -1.644531 C 22.460938 -1.628906 22.28125 -1.617188 22.164062 -1.550781 L 21.800781 -1.527344 C 20.960938 -1.46875 21.871094 -1.410156 20.050781 -1.46875 C 19.8125 -1.453125 19.570312 -1.4375 19.386719 -1.484375 C 19.023438 -1.460938 18.722656 -1.441406 18.355469 -1.476562 C 18.175781 -1.464844 17.925781 -1.566406 17.742188 -1.617188 C 17.496094 -1.660156 17.257812 -1.644531 17.011719 -1.6875 L 16.214844 -1.816406 C 15.851562 -1.851562 15.542969 -1.953125 15.171875 -2.046875 C 14.863281 -2.148438 14.558594 -2.1875 14.308594 -2.292969 C 14.0625 -2.335938 13.871094 -2.503906 13.683594 -2.554688 C 13.3125 -2.710938 12.945312 -2.746094 12.574219 -2.902344 C 12.074219 -3.109375 11.574219 -3.378906 11.070312 -3.648438 C 10.691406 -3.867188 10.316406 -4.082031 9.933594 -4.359375 C 9.621094 -4.519531 9.359375 -4.804688 9.105469 -4.96875 C 8.847656 -5.195312 8.539062 -5.292969 8.28125 -5.519531 C 8.21875 -5.574219 8.210938 -5.695312 8.148438 -5.691406 L 7.957031 -5.859375 C 7.828125 -5.972656 7.578125 -6.078125 7.445312 -6.25 C 7.253906 -6.417969 7.066406 -6.527344 6.929688 -6.757812 C 6.671875 -6.984375 6.464844 -7.332031 6.265625 -7.621094 C 6.0625 -7.910156 5.75 -8.070312 5.546875 -8.421875 C 5.476562 -8.539062 5.289062 -8.644531 5.214844 -8.820312 C 5.015625 -9.109375 4.933594 -9.410156 4.792969 -9.703125 C 4.660156 -9.875 4.40625 -10.039062 4.335938 -10.214844 C 4.199219 -10.449219 4.117188 -10.746094 4.039062 -11.042969 C 3.835938 -11.332031 3.691406 -11.683594 3.550781 -11.976562 C 3.265625 -12.625 2.984375 -13.210938 2.757812 -13.859375 C 2.675781 -14.21875 2.585938 -14.636719 2.496094 -15.054688 L 2.261719 -15.886719 C 1.886719 -17.855469 1.753906 -19.84375 1.613281 -21.890625 C 1.53125 -23.15625 1.441406 -24.484375 1.351562 -25.808594 L 1.089844 -29.722656 C 1 -31.050781 0.96875 -32.378906 0.882812 -33.703125 C 0.792969 -35.027344 0.585938 -36.285156 0.496094 -37.609375 C 0.410156 -38.9375 0.378906 -40.265625 0.289062 -41.589844 C 0.28125 -41.710938 0.335938 -41.835938 0.386719 -41.960938 C 0.429688 -42.207031 0.484375 -42.328125 0.722656 -42.347656 C 0.785156 -42.351562 0.789062 -42.289062 0.847656 -42.292969 C 1.933594 -42.367188 3.011719 -42.5 4.097656 -42.574219 C 5.242188 -42.648438 6.320312 -42.78125 7.40625 -42.855469 C 7.464844 -42.859375 7.597656 -42.6875 7.660156 -42.691406 C 7.84375 -42.644531 7.84375 -42.644531 7.917969 -42.464844 L 7.941406 -42.105469 C 8.039062 -40.660156 8.257812 -39.160156 8.359375 -37.65625 C 8.457031 -36.210938 8.5 -34.699219 8.601562 -33.195312 C 8.699219 -31.746094 8.917969 -30.25 9.019531 -28.742188 C 9.117188 -27.296875 9.160156 -25.789062 9.261719 -24.28125 L 9.558594 -19.824219 C 9.613281 -19.042969 9.722656 -18.324219 9.894531 -17.546875 C 9.984375 -17.128906 9.949219 -16.703125 10.097656 -16.289062 C 10.1875 -15.875 10.339844 -15.398438 10.550781 -14.988281 C 10.628906 -14.691406 10.882812 -14.527344 11.085938 -14.238281 C 11.160156 -14.003906 11.359375 -13.773438 11.496094 -13.539062 C 11.632812 -13.308594 11.769531 -13.074219 11.964844 -12.847656 C 12.097656 -12.671875 12.234375 -12.441406 12.367188 -12.269531 L 12.6875 -11.988281 C 12.753906 -11.929688 12.878906 -11.878906 12.882812 -11.820312 C 12.941406 -11.824219 12.886719 -11.757812 12.890625 -11.699219 C 13.015625 -11.644531 13.136719 -11.59375 13.203125 -11.539062 L 13.589844 -11.199219 C 13.90625 -10.980469 14.167969 -10.695312 14.542969 -10.476562 C 14.980469 -10.265625 15.476562 -10.117188 15.914062 -9.90625 C 16.285156 -9.808594 16.710938 -9.777344 17.078125 -9.679688 C 17.328125 -9.574219 17.519531 -9.40625 17.765625 -9.363281 C 18.011719 -9.320312 18.3125 -9.339844 18.554688 -9.355469 C 18.675781 -9.304688 18.859375 -9.316406 19.039062 -9.328125 C 19.21875 -9.339844 19.339844 -9.347656 19.457031 -9.417969 C 19.574219 -9.484375 19.566406 -9.605469 19.5625 -9.664062 C 19.617188 -9.730469 19.671875 -9.792969 19.667969 -9.855469 C 19.722656 -9.980469 19.652344 -10.09375 19.648438 -10.15625 L 19.644531 -10.214844 C 19.578125 -10.332031 19.625 -10.515625 19.617188 -10.636719 C 19.511719 -12.203125 19.53125 -13.71875 19.429688 -15.222656 C 19.324219 -16.789062 19.042969 -18.285156 18.941406 -19.789062 C 18.835938 -21.355469 18.855469 -22.871094 18.753906 -24.375 C 18.648438 -25.941406 18.425781 -27.441406 18.324219 -28.945312 C 18.21875 -30.511719 18.238281 -32.027344 18.136719 -33.53125 C 18.03125 -35.097656 17.992188 -36.609375 17.890625 -38.113281 C 17.785156 -39.679688 17.5625 -41.179688 17.460938 -42.683594 L 17.429688 -43.167969 C 17.476562 -43.351562 17.652344 -43.484375 17.890625 -43.5 L 18.011719 -43.507812 C 18.375 -43.53125 23.730469 -43.953125 24.632812 -44.015625 L 24.9375 -44.035156 C 25 -43.976562 25.074219 -43.800781 25.082031 -43.679688 C 25.144531 -43.625 25.09375 -43.5 25.160156 -43.382812 C 25.164062 -43.324219 25.230469 -43.265625 25.234375 -43.207031 C 25.328125 -41.820312 25.476562 -40.5 25.566406 -39.175781 C 25.65625 -37.789062 25.6875 -36.460938 25.78125 -35.074219 L 26.050781 -31.039062 C 26.140625 -29.714844 26.289062 -28.390625 26.382812 -27.007812 C 26.472656 -25.679688 26.441406 -24.347656 26.535156 -22.960938 Z M 26.535156 -22.960938" transform="translate(125.614 200.95)"/></g></g></g><g fill="#262A3D" fill-opacity=".6"><g><g><path d="M 23.1875 -0.171875 C 23.1875 -0.171875 23.125 -0.230469 23.066406 -0.230469 C 22.703125 -0.222656 22.34375 -0.0898438 21.980469 -0.0820312 C 21.679688 -0.0742188 21.375 -0.125 21.074219 -0.179688 C 20.832031 -0.171875 20.585938 -0.289062 20.347656 -0.28125 C 20.042969 -0.332031 19.800781 -0.386719 19.496094 -0.441406 L 18.164062 -0.585938 C 17.738281 -0.695312 17.253906 -0.804688 16.824219 -0.976562 C 16.582031 -1.03125 16.335938 -1.144531 16.09375 -1.199219 C 15.605469 -1.367188 15.121094 -1.535156 14.628906 -1.765625 C 14.265625 -1.875 13.839844 -2.046875 13.46875 -2.277344 C 12.859375 -2.566406 12.246094 -2.910156 11.632812 -3.257812 C 11.082031 -3.605469 10.46875 -3.953125 9.914062 -4.363281 L 8.992188 -5.003906 C 8.808594 -5.117188 8.621094 -5.292969 8.433594 -5.472656 C 8.25 -5.648438 8.125 -5.824219 7.941406 -5.941406 C 7.878906 -6 7.820312 -5.9375 7.757812 -5.996094 C 7.699219 -5.996094 7.816406 -6.121094 7.753906 -6.179688 C 7.691406 -6.238281 7.511719 -6.230469 7.386719 -6.351562 C 7.199219 -6.585938 7.070312 -6.824219 6.824219 -7.058594 C 6.636719 -7.296875 6.332031 -7.410156 6.144531 -7.648438 L 5.457031 -8.535156 C 5.207031 -8.832031 4.960938 -9.125 4.769531 -9.421875 L 4.074219 -10.613281 C 3.699219 -11.148438 3.503906 -11.6875 3.1875 -12.28125 C 3.058594 -12.519531 2.992188 -12.820312 2.863281 -13.117188 L 2.285156 -14.433594 C 2.027344 -15.089844 1.832031 -15.6875 1.632812 -16.347656 C 1.566406 -16.648438 1.554688 -17.011719 1.488281 -17.371094 C 1.421875 -17.550781 1.292969 -17.789062 1.289062 -18.03125 C 1.226562 -18.148438 1.339844 -18.335938 1.277344 -18.453125 C 1.273438 -18.574219 1.210938 -18.691406 1.207031 -18.8125 L 1.007812 -19.535156 C 1 -19.773438 1.058594 -19.957031 0.992188 -20.136719 C 0.988281 -20.316406 1.105469 -20.503906 1.101562 -20.621094 C 1.097656 -20.683594 1.035156 -20.800781 1.035156 -20.863281 L 1.03125 -20.984375 C 1.027344 -21.164062 0.960938 -21.34375 0.957031 -21.523438 L 0.953125 -21.644531 C 0.949219 -21.765625 0.949219 -21.886719 0.945312 -22.007812 L 0.925781 -22.792969 C 0.914062 -23.15625 1.089844 -23.460938 1.078125 -23.824219 C 1.132812 -24.125 1.0625 -24.488281 1.113281 -24.789062 C 1.109375 -24.972656 1.226562 -25.09375 1.222656 -25.277344 C 1.277344 -25.460938 1.273438 -25.699219 1.328125 -25.945312 C 1.378906 -26.308594 1.609375 -26.613281 1.664062 -26.980469 C 1.773438 -27.34375 1.761719 -27.765625 1.871094 -28.191406 C 1.984375 -28.558594 2.277344 -28.925781 2.386719 -29.292969 C 2.558594 -29.71875 2.609375 -30.144531 2.78125 -30.511719 C 2.890625 -30.816406 3.128906 -31.0625 3.300781 -31.371094 C 3.589844 -31.921875 3.753906 -32.527344 4.101562 -33.082031 C 4.390625 -33.570312 4.679688 -34.0625 5.03125 -34.554688 C 5.265625 -34.863281 5.621094 -35.050781 5.855469 -35.359375 C 6.03125 -35.546875 6.148438 -35.789062 6.324219 -35.976562 C 6.320312 -36.035156 6.261719 -36.097656 6.261719 -36.097656 C 6.554688 -36.40625 6.847656 -36.714844 7.203125 -36.964844 C 7.4375 -37.214844 7.671875 -37.519531 7.96875 -37.769531 C 8.085938 -37.894531 8.203125 -38.078125 8.378906 -38.203125 L 8.859375 -38.398438 C 9.152344 -38.644531 9.449219 -38.894531 9.804688 -39.144531 C 10.160156 -39.457031 10.574219 -39.832031 10.988281 -40.082031 L 12.238281 -40.839844 C 12.714844 -41.09375 13.253906 -41.289062 13.792969 -41.484375 C 14.03125 -41.609375 14.265625 -41.859375 14.503906 -41.925781 C 14.804688 -42.054688 15.105469 -42.121094 15.402344 -42.25 C 16.242188 -42.511719 17.082031 -42.714844 17.921875 -42.859375 C 18.101562 -42.921875 18.339844 -43.050781 18.582031 -43.054688 C 18.824219 -43.121094 19.0625 -43.25 19.363281 -43.257812 C 19.542969 -43.320312 19.785156 -43.269531 19.964844 -43.273438 C 20.085938 -43.335938 20.269531 -43.28125 20.449219 -43.34375 L 21.171875 -43.363281 C 21.230469 -43.367188 21.289062 -43.488281 21.351562 -43.488281 C 21.589844 -43.496094 21.832031 -43.5 22.074219 -43.507812 L 22.195312 -43.511719 C 22.375 -43.515625 22.617188 -43.582031 22.796875 -43.527344 C 23.101562 -43.535156 23.402344 -43.480469 23.707031 -43.488281 L 24.128906 -43.5 C 24.308594 -43.445312 24.550781 -43.511719 24.792969 -43.457031 C 25.035156 -43.464844 25.28125 -43.289062 25.523438 -43.292969 C 26.007812 -43.1875 26.429688 -43.195312 26.917969 -43.089844 C 27.097656 -43.03125 27.339844 -43.039062 27.582031 -42.984375 C 28.191406 -42.878906 28.796875 -42.714844 29.347656 -42.488281 C 29.652344 -42.375 29.898438 -42.257812 30.140625 -42.207031 L 31.113281 -41.867188 C 31.480469 -41.695312 31.851562 -41.402344 32.21875 -41.230469 C 32.648438 -41 33.132812 -40.832031 33.566406 -40.542969 C 33.8125 -40.367188 34.175781 -40.253906 34.484375 -40.082031 C 34.789062 -39.847656 35.160156 -39.554688 35.46875 -39.261719 L 36.148438 -38.734375 C 36.332031 -38.558594 36.519531 -38.382812 36.703125 -38.265625 C 36.949219 -38.03125 37.136719 -37.855469 37.382812 -37.679688 L 37.816406 -37.328125 C 37.9375 -37.273438 37.941406 -37.089844 38.066406 -36.972656 C 38.1875 -36.855469 38.433594 -36.742188 38.621094 -36.566406 C 38.742188 -36.445312 38.867188 -36.269531 38.992188 -36.089844 C 39.121094 -35.914062 39.1875 -35.671875 39.371094 -35.496094 L 39.933594 -34.785156 C 40.183594 -34.492188 40.429688 -34.253906 40.621094 -33.898438 L 41.183594 -33.1875 C 41.308594 -32.949219 41.5 -32.652344 41.625 -32.355469 C 41.816406 -32.058594 42.003906 -31.757812 42.132812 -31.460938 C 42.320312 -31.164062 42.453125 -30.804688 42.582031 -30.445312 C 42.773438 -30.027344 42.90625 -29.546875 43.097656 -29.128906 C 43.230469 -28.652344 43.421875 -28.234375 43.554688 -27.8125 C 43.6875 -27.394531 43.699219 -26.972656 43.828125 -26.550781 C 43.898438 -26.25 43.90625 -25.949219 43.972656 -25.648438 C 43.980469 -25.410156 44.046875 -25.109375 44.054688 -24.804688 C 44.117188 -24.6875 44.183594 -24.566406 44.183594 -24.449219 C 44.191406 -24.265625 44.257812 -24.027344 44.261719 -23.84375 L 44.261719 -23.785156 C 44.269531 -23.542969 44.335938 -23.242188 44.34375 -22.941406 C 44.410156 -22.761719 44.234375 -22.578125 44.238281 -22.335938 C 44.246094 -22.09375 44.371094 -21.855469 44.378906 -21.554688 C 44.386719 -21.3125 44.394531 -21.011719 44.339844 -20.765625 C 44.34375 -20.585938 44.289062 -20.464844 44.230469 -20.28125 L 44.242188 -19.859375 C 44.246094 -19.679688 44.191406 -19.496094 44.136719 -19.3125 L 44.152344 -18.648438 C 44.097656 -18.40625 43.984375 -18.160156 43.929688 -17.859375 C 43.824219 -17.371094 43.773438 -16.886719 43.664062 -16.460938 C 43.554688 -16.035156 43.382812 -15.667969 43.273438 -15.242188 C 43.21875 -15 43.164062 -14.820312 43.109375 -14.574219 L 42.769531 -13.78125 C 42.539062 -13.292969 42.371094 -12.746094 42.085938 -12.195312 C 41.851562 -11.824219 41.621094 -11.457031 41.390625 -11.027344 C 41.15625 -10.660156 40.988281 -10.234375 40.753906 -9.863281 C 40.519531 -9.554688 40.285156 -9.371094 40.109375 -9.0625 C 39.9375 -8.816406 39.824219 -8.511719 39.648438 -8.265625 C 39.472656 -8.082031 39.355469 -7.894531 39.238281 -7.710938 C 39.121094 -7.589844 38.941406 -7.523438 38.824219 -7.398438 C 38.53125 -7.089844 38.300781 -6.722656 38.003906 -6.472656 C 37.886719 -6.289062 37.648438 -6.222656 37.46875 -6.097656 C 37.351562 -5.972656 37.296875 -5.789062 37.238281 -5.726562 C 37.058594 -5.601562 36.882812 -5.476562 36.703125 -5.351562 L 35.816406 -4.605469 C 35.402344 -4.292969 34.984375 -4.039062 34.570312 -3.785156 C 34.273438 -3.597656 34.035156 -3.351562 33.738281 -3.160156 C 33.621094 -3.097656 33.5 -3.09375 33.378906 -3.09375 C 33.144531 -2.90625 33.027344 -2.660156 32.789062 -2.535156 C 32.492188 -2.40625 32.132812 -2.273438 31.835938 -2.085938 C 31.59375 -2.019531 31.292969 -2.011719 31.054688 -1.886719 C 30.398438 -1.625 29.738281 -1.367188 29.019531 -1.167969 C 28.480469 -0.972656 27.882812 -0.777344 27.34375 -0.640625 C 26.921875 -0.570312 26.5 -0.558594 26.136719 -0.492188 L 25.238281 -0.285156 C 25.058594 -0.28125 24.878906 -0.15625 24.699219 -0.152344 C 24.519531 -0.0859375 24.273438 -0.140625 24.09375 -0.136719 C 23.792969 -0.0664062 23.488281 -0.179688 23.1875 -0.171875 Z M 23.757812 -8.523438 C 25.324219 -8.621094 26.949219 -8.964844 28.496094 -9.730469 C 29.867188 -10.429688 31.109375 -11.550781 32.34375 -12.789062 C 33.519531 -14.085938 34.449219 -15.5 35.015625 -17.023438 C 35.640625 -18.550781 35.960938 -20.191406 35.972656 -22 C 36.007812 -23.03125 35.859375 -24.113281 35.652344 -25.132812 C 35.386719 -26.035156 35 -26.929688 34.558594 -27.761719 C 33.921875 -29.015625 33.105469 -30.140625 32.175781 -31.085938 C 31.679688 -31.613281 31.183594 -32.144531 30.628906 -32.554688 C 29.765625 -33.195312 28.789062 -33.714844 27.8125 -34.113281 C 26.894531 -34.511719 25.980469 -34.789062 25.011719 -34.945312 C 24.101562 -35.105469 23.253906 -35.203125 22.347656 -35.179688 C 21.082031 -35.148438 19.816406 -34.933594 18.558594 -34.539062 C 17.542969 -34.152344 16.589844 -33.644531 15.636719 -33.074219 C 14.6875 -32.445312 13.859375 -31.820312 13.09375 -31.015625 C 12.210938 -30.089844 11.394531 -29.039062 10.820312 -27.878906 C 10.359375 -26.960938 10.082031 -25.988281 9.867188 -24.953125 C 9.59375 -23.800781 9.261719 -22.644531 9.292969 -21.496094 C 9.324219 -20.289062 9.65625 -19.152344 9.984375 -18.074219 C 10.316406 -16.933594 10.707031 -15.855469 11.335938 -14.847656 C 11.964844 -13.777344 12.835938 -12.890625 13.703125 -12.070312 C 14.566406 -11.304688 15.550781 -10.605469 16.652344 -10.03125 C 17.753906 -9.453125 18.851562 -9.121094 20.125 -8.851562 C 21.214844 -8.699219 22.371094 -8.488281 23.757812 -8.523438 Z M 23.757812 -8.523438" transform="translate(160.596 198.511)"/></g></g></g><g fill="#262A3D" fill-opacity=".6"><g><g><path d="M 3.402344 -21.203125 C 3.421875 -22.46875 3.382812 -23.800781 3.402344 -25.066406 C 3.421875 -26.394531 3.5625 -27.660156 3.582031 -28.988281 C 3.601562 -30.257812 3.5 -31.585938 3.519531 -32.855469 L 3.582031 -36.777344 C 3.601562 -38.046875 3.679688 -39.375 3.699219 -40.640625 C 3.703125 -40.941406 3.707031 -41.183594 3.773438 -41.425781 C 3.835938 -41.664062 4.019531 -41.84375 4.203125 -41.960938 C 4.386719 -42.078125 4.566406 -42.015625 4.808594 -42.074219 C 5.292969 -42.125 5.777344 -42.179688 6.257812 -42.171875 C 7.828125 -42.148438 9.394531 -41.941406 10.964844 -41.917969 C 13.5625 -41.941406 15.433594 -41.972656 15.675781 -41.90625 C 15.976562 -41.902344 16.277344 -41.957031 16.519531 -41.953125 L 17.003906 -41.949219 C 17.183594 -41.882812 17.363281 -41.820312 17.484375 -41.820312 C 18.027344 -41.75 18.507812 -41.5 18.988281 -41.375 C 19.46875 -41.246094 19.949219 -41.117188 20.429688 -40.929688 L 21.269531 -40.554688 C 21.449219 -40.492188 21.6875 -40.304688 21.867188 -40.183594 C 22.109375 -40.117188 22.289062 -39.996094 22.46875 -39.933594 C 22.527344 -39.871094 22.648438 -39.929688 22.710938 -39.929688 L 24.023438 -39.003906 C 24.203125 -38.820312 24.441406 -38.574219 24.679688 -38.386719 C 24.855469 -38.203125 25.09375 -37.960938 25.332031 -37.773438 C 25.570312 -37.53125 25.6875 -37.226562 25.925781 -36.980469 C 26.160156 -36.675781 26.519531 -36.429688 26.757812 -36.0625 C 26.933594 -35.816406 27.109375 -35.511719 27.285156 -35.207031 C 27.523438 -34.902344 27.699219 -34.597656 27.875 -34.292969 L 27.933594 -34.050781 C 28.167969 -33.625 28.28125 -33.140625 28.457031 -32.65625 C 28.628906 -32.230469 28.683594 -31.804688 28.796875 -31.382812 C 28.914062 -31.078125 29.03125 -30.714844 29.085938 -30.410156 C 29.199219 -30.046875 29.132812 -29.6875 29.1875 -29.324219 C 29.1875 -29.082031 29.363281 -28.835938 29.359375 -28.535156 C 29.359375 -28.535156 29.296875 -28.535156 29.296875 -28.535156 L 29.28125 -27.328125 C 29.277344 -27.085938 29.210938 -26.847656 29.207031 -26.605469 C 29.207031 -26.425781 29.203125 -26.304688 29.203125 -26.183594 L 29.003906 -24.976562 C 28.9375 -24.675781 28.933594 -24.375 28.867188 -24.074219 C 28.742188 -23.652344 28.492188 -23.296875 28.304688 -22.875 C 28.179688 -22.574219 28.113281 -22.214844 27.988281 -21.914062 C 27.804688 -21.675781 27.679688 -21.375 27.554688 -21.136719 C 27.429688 -20.894531 27.367188 -20.59375 27.242188 -20.355469 C 27.054688 -20.054688 26.8125 -19.878906 26.625 -19.640625 C 26.378906 -19.28125 26.132812 -18.921875 25.886719 -18.625 C 25.824219 -18.503906 25.824219 -18.445312 25.820312 -18.324219 C 25.757812 -18.144531 25.695312 -17.964844 25.8125 -17.78125 C 25.929688 -17.597656 26.050781 -17.414062 26.226562 -17.230469 C 26.460938 -16.804688 26.820312 -16.4375 27.054688 -16.011719 C 27.230469 -15.644531 27.402344 -15.222656 27.519531 -14.855469 C 27.636719 -14.613281 27.816406 -14.429688 27.871094 -14.1875 C 28.046875 -13.761719 28.039062 -13.339844 28.152344 -12.855469 C 28.207031 -12.492188 28.441406 -12.066406 28.4375 -11.703125 C 28.492188 -11.460938 28.367188 -11.160156 28.363281 -10.917969 L 28.347656 -9.832031 C 28.324219 -8.324219 28.363281 -6.8125 28.339844 -5.363281 C 28.316406 -3.855469 28.292969 -2.347656 28.273438 -0.898438 L 28.265625 -0.414062 C 28.203125 -0.234375 28.140625 -0.0546875 28.015625 0.0664062 L 27.832031 0.242188 C 27.648438 0.363281 27.40625 0.417969 27.226562 0.414062 C 27.164062 0.414062 27.164062 0.414062 27.105469 0.414062 L 20.949219 0.320312 C 20.765625 0.316406 20.585938 0.253906 20.40625 0.191406 C 20.105469 0.0664062 19.808594 -0.121094 19.753906 -0.484375 C 19.753906 -0.605469 19.878906 -0.785156 19.878906 -0.902344 C 19.902344 -2.292969 19.863281 -3.683594 19.882812 -5.070312 C 19.902344 -6.460938 19.984375 -7.847656 20.007812 -9.234375 C 19.953125 -9.597656 19.835938 -10.023438 19.84375 -10.386719 C 19.789062 -10.929688 19.738281 -11.414062 19.5625 -11.839844 C 19.386719 -12.144531 19.273438 -12.507812 19.035156 -12.753906 C 18.738281 -13.058594 18.378906 -13.246094 17.957031 -13.433594 C 17.777344 -13.554688 17.535156 -13.558594 17.355469 -13.621094 C 16.996094 -13.6875 16.636719 -13.875 16.273438 -13.882812 L 16.214844 -13.882812 C 15.730469 -13.890625 15.246094 -13.835938 14.703125 -13.84375 C 14.21875 -13.851562 13.734375 -13.800781 13.191406 -13.808594 L 12.40625 -13.820312 C 12.285156 -13.761719 12.046875 -13.824219 11.921875 -13.707031 C 11.863281 -13.644531 11.800781 -13.585938 11.800781 -13.527344 C 11.738281 -13.40625 11.734375 -13.226562 11.730469 -13.042969 C 11.652344 -11.777344 11.753906 -10.449219 11.734375 -9.179688 C 11.714844 -7.914062 11.632812 -6.585938 11.613281 -5.316406 C 11.59375 -4.050781 11.636719 -2.722656 11.617188 -1.453125 C 11.613281 -1.273438 11.488281 -1.152344 11.425781 -0.972656 C 11.421875 -0.730469 11.359375 -0.492188 11.117188 -0.375 C 11.054688 -0.3125 10.933594 -0.253906 10.75 -0.199219 C 10.628906 -0.199219 10.449219 -0.140625 10.265625 -0.144531 C 8.273438 -0.175781 6.34375 -0.265625 4.414062 -0.296875 C 4.230469 -0.296875 3.988281 -0.179688 3.867188 -0.242188 C 3.507812 -0.308594 3.332031 -0.613281 3.214844 -0.976562 L 3.042969 -1.523438 C 3.042969 -1.644531 3.167969 -1.824219 3.167969 -1.945312 L 3.242188 -6.773438 C 3.269531 -8.402344 3.292969 -9.972656 3.316406 -11.601562 L 3.390625 -16.371094 C 3.414062 -18.003906 3.378906 -19.574219 3.402344 -21.203125 Z M 11.957031 -27.894531 C 11.9375 -26.507812 11.976562 -25.175781 11.957031 -23.789062 C 11.953125 -23.609375 11.890625 -23.429688 11.886719 -23.1875 L 11.886719 -23.066406 C 11.882812 -22.945312 12.003906 -22.882812 12.003906 -22.824219 C 12.0625 -22.699219 12.121094 -22.640625 12.238281 -22.515625 C 12.359375 -22.453125 12.476562 -22.332031 12.660156 -22.328125 L 14.109375 -22.308594 C 14.589844 -22.359375 15.074219 -22.292969 15.558594 -22.34375 C 15.796875 -22.339844 16.101562 -22.277344 16.34375 -22.332031 C 16.949219 -22.445312 17.4375 -22.800781 17.984375 -23.09375 C 18.289062 -23.269531 18.652344 -23.324219 18.898438 -23.5625 C 19.082031 -23.742188 19.265625 -23.917969 19.449219 -24.15625 C 19.695312 -24.394531 19.882812 -24.816406 20.066406 -25.113281 C 20.253906 -25.414062 20.320312 -25.714844 20.445312 -26.015625 C 20.570312 -26.316406 20.695312 -26.613281 20.699219 -26.976562 C 20.765625 -27.21875 20.886719 -27.398438 20.890625 -27.636719 C 20.957031 -27.9375 20.839844 -28.183594 20.84375 -28.484375 C 20.789062 -28.90625 20.675781 -29.273438 20.558594 -29.695312 C 20.445312 -30.058594 20.269531 -30.484375 20.035156 -30.851562 L 19.441406 -31.585938 C 19.265625 -31.828125 18.902344 -31.957031 18.664062 -32.140625 C 18.367188 -32.324219 18.128906 -32.511719 17.828125 -32.695312 L 16.988281 -33.070312 C 16.75 -33.136719 16.566406 -33.199219 16.328125 -33.203125 C 16.207031 -33.265625 16.027344 -33.386719 15.90625 -33.390625 C 15.726562 -33.394531 15.484375 -33.335938 15.300781 -33.339844 L 12.949219 -33.375 C 12.828125 -33.375 12.707031 -33.316406 12.585938 -33.320312 C 12.34375 -33.324219 12.21875 -33.085938 12.15625 -32.902344 C 12.152344 -32.601562 12.027344 -32.363281 12.023438 -32.058594 Z M 11.957031 -27.894531" transform="translate(210.026 197.46)"/></g></g></g><g fill="#262A3D" fill-opacity=".6"><g><g><path d="M 18.902344 -16.273438 C 18.667969 -11.328125 18.371094 -6.324219 18.074219 -1.320312 C 18.046875 -0.71875 18.015625 -0.0546875 17.511719 0.34375 C 17.132812 0.6875 16.585938 0.722656 16.105469 0.699219 C 14.59375 0.6875 13.148438 0.621094 11.707031 0.433594 C 11.164062 0.40625 10.5625 0.316406 10.09375 -0.0078125 C 9.570312 -0.394531 9.59375 -0.9375 9.683594 -1.539062 C 9.777344 -2.257812 9.753906 -3.042969 9.789062 -3.769531 L 10.023438 -8.773438 C 10.183594 -12.152344 10.339844 -15.46875 10.5 -18.84375 L 11.097656 -31.449219 C 11.117188 -31.933594 11.085938 -32.476562 10.800781 -32.855469 C 10.453125 -33.171875 9.914062 -33.257812 9.425781 -33.222656 L 7.316406 -33.320312 C 6.472656 -33.359375 5.507812 -33.464844 5 -34.15625 C 4.660156 -34.65625 4.691406 -35.320312 4.71875 -35.921875 C 4.773438 -37.066406 4.832031 -38.273438 4.945312 -39.417969 C 4.984375 -40.261719 5.089844 -41.222656 5.832031 -41.609375 C 6.207031 -41.835938 6.691406 -41.871094 7.175781 -41.851562 C 13.035156 -41.753906 18.882812 -41.476562 24.722656 -40.960938 C 25.144531 -40.941406 25.625 -40.917969 25.972656 -40.597656 C 26.320312 -40.21875 26.355469 -39.734375 26.394531 -39.25 C 26.492188 -37.492188 26.410156 -35.742188 26.207031 -34 C 26.125 -33.582031 26.109375 -33.21875 25.792969 -32.929688 C 25.476562 -32.644531 25.050781 -32.605469 24.628906 -32.5625 C 23.597656 -32.550781 22.574219 -32.601562 21.613281 -32.707031 C 21.191406 -32.726562 20.828125 -32.742188 20.460938 -32.640625 C 19.660156 -32.316406 19.550781 -31.292969 19.511719 -30.449219 C 19.289062 -25.742188 19.125 -21.035156 18.902344 -16.273438 Z M 18.902344 -16.273438" transform="translate(244.28 198.062)"/></g></g></g><g fill="#262A3D" fill-opacity=".6"><g><g><path d="M 3.191406 -21.734375 C 3.222656 -22.15625 3.316406 -22.574219 3.46875 -22.984375 C 3.175781 -23.128906 4.101562 -25.722656 4.253906 -26.132812 C 4.824219 -28.027344 5.75 -29.832031 6.785156 -31.449219 C 7.257812 -32.078125 7.734375 -32.769531 8.261719 -33.332031 C 9.390625 -34.640625 10.761719 -35.925781 12.171875 -36.90625 C 12.367188 -37.074219 12.554688 -37.179688 12.746094 -37.289062 C 12.808594 -37.34375 12.933594 -37.394531 13.003906 -37.511719 L 14.96875 -38.628906 C 15.09375 -38.679688 15.332031 -38.664062 15.464844 -38.773438 C 15.648438 -38.820312 15.839844 -38.925781 16.023438 -38.972656 C 16.089844 -39.027344 16.097656 -39.148438 16.160156 -39.144531 C 16.164062 -39.203125 16.21875 -39.140625 16.277344 -39.132812 C 16.410156 -39.246094 16.597656 -39.351562 16.785156 -39.398438 C 16.914062 -39.507812 17.09375 -39.496094 17.222656 -39.605469 C 17.34375 -39.597656 17.414062 -39.714844 17.472656 -39.707031 C 17.785156 -39.804688 18.089844 -39.84375 18.339844 -39.945312 C 18.585938 -39.984375 18.890625 -40.023438 19.140625 -40.125 C 19.261719 -40.117188 19.335938 -40.292969 19.457031 -40.28125 C 19.519531 -40.339844 19.640625 -40.328125 19.761719 -40.320312 C 19.824219 -40.375 19.941406 -40.304688 20 -40.300781 C 20.125 -40.351562 20.246094 -40.34375 20.371094 -40.394531 C 20.492188 -40.382812 20.621094 -40.496094 20.746094 -40.546875 C 20.871094 -40.597656 20.992188 -40.585938 21.113281 -40.578125 L 22.339844 -40.785156 C 22.582031 -40.769531 22.882812 -40.746094 23.1875 -40.78125 C 23.367188 -40.769531 23.558594 -40.875 23.738281 -40.859375 C 24.042969 -40.898438 24.28125 -40.820312 24.585938 -40.855469 C 25.253906 -40.863281 25.902344 -40.632812 26.214844 -40.003906 C 26.324219 -39.8125 26.304688 -39.574219 26.351562 -39.386719 C 26.390625 -38.355469 26.371094 -37.328125 26.292969 -36.304688 C 26.246094 -35.703125 26.203125 -35.097656 26.097656 -34.5625 C 25.949219 -33.421875 25.625 -32.359375 24.289062 -32.28125 L 24.046875 -32.296875 C 23.921875 -32.246094 23.808594 -32.316406 23.6875 -32.328125 L 22.828125 -32.210938 C 19.277344 -31.699219 15.847656 -29.601562 13.859375 -26.605469 C 13.71875 -26.375 13.703125 -26.132812 13.5625 -25.902344 L 13.289062 -25.5 C 13.28125 -25.378906 13.394531 -25.308594 13.390625 -25.246094 C 13.382812 -25.128906 13.3125 -25.011719 13.421875 -24.882812 C 13.476562 -24.757812 13.585938 -24.628906 13.703125 -24.558594 C 13.9375 -24.480469 14.121094 -24.527344 14.363281 -24.507812 C 14.605469 -24.488281 14.902344 -24.40625 15.140625 -24.386719 C 15.203125 -24.382812 15.203125 -24.382812 15.203125 -24.382812 L 15.382812 -24.367188 C 15.445312 -24.421875 15.5 -24.296875 15.558594 -24.292969 C 16.703125 -24.207031 17.847656 -24.117188 18.992188 -24.089844 C 19.597656 -24.042969 20.136719 -24 20.683594 -24.019531 C 21.164062 -23.984375 21.636719 -23.824219 22.121094 -23.789062 L 22.238281 -23.777344 C 22.660156 -23.746094 23.261719 -23.699219 23.617188 -23.550781 C 23.671875 -23.488281 23.671875 -23.488281 23.730469 -23.480469 C 24.074219 -23.214844 24.285156 -22.832031 24.3125 -22.40625 C 24.355469 -22.164062 24.332031 -21.859375 24.3125 -21.621094 C 24.28125 -21.199219 24.246094 -20.71875 24.210938 -20.296875 L 24.039062 -18.070312 C 24.035156 -18.007812 23.972656 -17.953125 23.972656 -17.953125 C 23.964844 -17.894531 24.082031 -17.824219 24.074219 -17.703125 C 24.023438 -17.039062 23.9375 -15.957031 23.300781 -15.523438 C 22.789062 -15.199219 22.304688 -15.175781 21.761719 -15.214844 C 21.402344 -15.246094 21.097656 -15.269531 20.742188 -15.355469 C 19.664062 -15.5 18.449219 -15.472656 17.367188 -15.554688 C 16.164062 -15.648438 15.023438 -15.796875 13.878906 -15.886719 C 13.640625 -15.902344 13.339844 -15.925781 13.089844 -15.824219 C 12.902344 -15.777344 12.773438 -15.667969 12.703125 -15.550781 C 12.574219 -15.441406 12.503906 -15.324219 12.496094 -15.203125 C 12.488281 -15.085938 12.417969 -14.96875 12.46875 -14.84375 C 12.453125 -14.664062 12.566406 -14.53125 12.671875 -14.34375 C 12.667969 -14.28125 12.664062 -14.222656 12.65625 -14.164062 L 13.023438 -13.40625 C 13.175781 -13.03125 13.515625 -12.703125 13.726562 -12.324219 C 14.101562 -11.691406 14.550781 -11.230469 15.050781 -10.648438 C 15.277344 -10.449219 15.375 -10.136719 15.597656 -9.878906 C 16.164062 -9.351562 17.03125 -8.859375 17.722656 -8.382812 C 18.703125 -7.761719 19.8125 -7.191406 20.9375 -6.863281 C 21.050781 -6.792969 21.230469 -6.78125 21.414062 -6.765625 C 21.648438 -6.6875 21.890625 -6.667969 22.066406 -6.59375 C 22.363281 -6.511719 22.597656 -6.433594 22.890625 -6.289062 C 23.066406 -6.214844 23.175781 -6.085938 23.34375 -5.890625 C 23.453125 -5.761719 23.570312 -5.691406 23.621094 -5.566406 C 23.777344 -5.25 23.765625 -5.070312 23.75 -4.890625 C 23.742188 -4.769531 23.730469 -4.648438 23.722656 -4.527344 L 23.703125 -4.289062 C 23.726562 -3.800781 23.691406 -3.320312 23.652344 -2.839844 C 23.613281 -2.296875 23.574219 -1.816406 23.472656 -1.277344 C 23.433594 -0.796875 23.398438 -0.316406 23.300781 0.160156 C 23.273438 0.523438 23.292969 1.070312 23.148438 1.359375 C 23.136719 1.480469 23.007812 1.59375 22.9375 1.707031 L 22.75 1.816406 C 22.683594 1.871094 22.5 1.917969 22.4375 1.910156 C 22.0625 2.066406 21.757812 2.101562 21.457031 2.078125 C 21.21875 2.058594 20.976562 2.042969 20.804688 1.90625 C 20.570312 1.828125 20.324219 1.871094 20.082031 1.851562 C 19.726562 1.761719 19.371094 1.675781 19.078125 1.53125 C 19.015625 1.527344 18.890625 1.578125 18.835938 1.511719 C 18.597656 1.496094 18.429688 1.300781 18.191406 1.222656 C 18.078125 1.152344 17.886719 1.257812 17.710938 1.183594 C 17.414062 1.101562 17.0625 0.953125 16.773438 0.808594 C 16.1875 0.519531 15.609375 0.175781 15.023438 -0.0546875 C 14.492188 -0.273438 13.960938 -0.4375 13.5 -0.714844 C 13.382812 -0.785156 13.269531 -0.914062 13.402344 -1.027344 C 13.015625 -0.753906 11.328125 -2.398438 11.101562 -2.597656 C 10.867188 -2.734375 10.632812 -2.8125 10.40625 -3.011719 C 10.238281 -3.207031 10.011719 -3.40625 9.785156 -3.605469 C 9.332031 -4.003906 8.953125 -4.578125 8.503906 -5.035156 C 7.714844 -5.824219 6.953125 -6.914062 6.300781 -7.871094 L 5.867188 -8.570312 C 5.65625 -8.949219 5.566406 -9.378906 5.359375 -9.820312 C 5.253906 -10.011719 5.140625 -10.140625 5.035156 -10.328125 L 4.992188 -10.574219 C 4.679688 -11.207031 4.308594 -11.898438 4.113281 -12.519531 C 3.933594 -13.320312 3.628906 -14.070312 3.503906 -14.808594 L 3.367188 -15.421875 C 3.324219 -15.609375 3.398438 -15.785156 3.351562 -15.96875 C 3.308594 -16.214844 3.324219 -16.394531 3.339844 -16.636719 C 3.300781 -16.882812 3.132812 -17.078125 3.089844 -17.324219 C 3.058594 -17.6875 3.085938 -18.050781 3.054688 -18.414062 C 3.03125 -18.902344 3.0625 -19.324219 3.101562 -19.804688 C 3.085938 -20.410156 3.136719 -21.074219 3.191406 -21.734375 Z M 3.191406 -21.734375" transform="translate(275.174 199.58)"/></g></g></g><g fill="#262A3D" fill-opacity=".6"><g><g><path d="M 29.390625 -30.414062 C 29.152344 -27.644531 28.859375 -24.945312 28.570312 -22.242188 C 28.542969 -22.003906 28.457031 -21.769531 28.433594 -21.527344 C 28.414062 -21.347656 28.332031 -21.175781 28.246094 -20.941406 C 28.234375 -20.820312 28.28125 -20.695312 28.207031 -20.582031 C 28.023438 -19.996094 27.777344 -19.414062 27.472656 -18.839844 C 27.234375 -18.320312 26.996094 -17.796875 26.644531 -17.351562 L 26.148438 -16.675781 C 25.941406 -16.453125 25.675781 -16.238281 25.464844 -15.957031 L 25.183594 -15.625 C 25.105469 -15.449219 25.144531 -15.265625 25.191406 -15.136719 C 25.234375 -14.953125 25.398438 -14.8125 25.5 -14.617188 C 25.601562 -14.425781 25.824219 -14.21875 25.921875 -14.027344 C 26.070312 -13.707031 26.09375 -13.339844 26.238281 -13.019531 C 26.328125 -12.707031 26.414062 -12.394531 26.507812 -12.140625 L 26.644531 -11.703125 C 26.773438 -11.203125 26.839844 -10.710938 26.910156 -10.214844 C 26.992188 -9.84375 27.066406 -9.410156 27.085938 -9.042969 C 27.125 -8.855469 27.046875 -8.683594 27.035156 -8.5625 C 26.984375 -7.535156 26.761719 -6.589844 26.65625 -5.628906 C 26.515625 -4.308594 26.4375 -3.039062 26.296875 -1.71875 C 26.15625 -0.398438 25.957031 0.855469 25.816406 2.175781 C 25.808594 2.234375 25.855469 2.363281 25.84375 2.480469 C 25.769531 2.59375 25.699219 2.707031 25.519531 2.6875 C 25.453125 2.742188 25.324219 2.789062 25.265625 2.785156 L 23.105469 2.550781 C 21.664062 2.394531 20.175781 2.113281 18.734375 1.957031 C 18.613281 1.945312 18.554688 1.9375 18.441406 1.867188 C 18.320312 1.851562 18.140625 1.832031 18.09375 1.707031 C 18.046875 1.582031 18.179688 1.472656 18.191406 1.351562 C 18.199219 1.292969 18.085938 1.21875 18.097656 1.101562 C 18.253906 -0.339844 18.414062 -1.839844 18.578125 -3.339844 L 19.0625 -7.84375 C 19.074219 -7.964844 19.203125 -8.011719 19.214844 -8.132812 L 19.226562 -8.25 C 19.242188 -8.371094 19.195312 -8.496094 19.199219 -8.558594 C 19.167969 -8.804688 19.246094 -8.976562 19.203125 -9.164062 C 19.222656 -9.34375 19.191406 -9.589844 19.097656 -9.84375 L 18.972656 -10.402344 C 18.773438 -10.789062 18.5 -11.0625 18.222656 -11.335938 C 18.0625 -11.535156 17.910156 -11.792969 17.683594 -11.941406 C 17.457031 -12.085938 17.109375 -12.246094 16.8125 -12.335938 C 16.640625 -12.417969 16.453125 -12.375 16.273438 -12.394531 L 16.039062 -12.480469 C 15.800781 -12.507812 15.613281 -12.464844 15.367188 -12.433594 C 15 -12.410156 14.640625 -12.449219 14.328125 -12.363281 C 14.007812 -12.214844 13.808594 -12.054688 13.542969 -11.839844 C 13.148438 -11.578125 12.804688 -11.191406 12.578125 -10.789062 C 12.367188 -10.507812 12.269531 -10.15625 12.175781 -9.859375 C 12.070312 -9.449219 11.851562 -9.105469 11.804688 -8.6875 C 11.644531 -7.1875 11.535156 -5.617188 11.367188 -4.058594 C 11.207031 -2.558594 11.039062 -0.996094 10.871094 0.5625 L 10.785156 0.796875 C 10.703125 0.972656 10.691406 1.089844 10.566406 1.136719 C 10.445312 1.125 10.332031 1.050781 10.269531 1.046875 C 9.25 0.9375 8.277344 0.953125 7.257812 0.84375 C 6.054688 0.714844 4.867188 0.464844 3.667969 0.335938 C 3.609375 0.328125 3.476562 0.433594 3.414062 0.429688 C 3.242188 0.347656 3.074219 0.210938 3.085938 0.0898438 C 3.039062 -0.0351562 3.171875 -0.144531 3.1875 -0.265625 C 3.191406 -0.324219 3.140625 -0.390625 3.144531 -0.449219 L 3.648438 -5.132812 C 3.816406 -6.691406 3.925781 -8.261719 4.09375 -9.820312 C 4.113281 -10 4.195312 -10.175781 4.214844 -10.355469 C 4.226562 -10.476562 4.183594 -10.660156 4.257812 -10.773438 C 4.285156 -11.015625 4.304688 -11.195312 4.382812 -11.367188 C 4.421875 -11.730469 4.582031 -12.078125 4.738281 -12.421875 C 4.753906 -12.542969 4.773438 -12.722656 4.84375 -12.835938 C 4.945312 -13.191406 5.167969 -13.589844 5.328125 -13.9375 C 5.488281 -14.285156 5.644531 -14.632812 5.859375 -14.914062 L 6.355469 -15.589844 C 6.421875 -15.644531 6.386719 -15.890625 6.515625 -15.9375 C 6.734375 -16.277344 7.121094 -16.476562 7.398438 -16.8125 C 7.53125 -16.917969 7.675781 -17.148438 7.703125 -17.386719 C 7.722656 -17.566406 7.496094 -17.714844 7.449219 -17.839844 C 7.355469 -18.09375 7.195312 -18.292969 7.09375 -18.484375 L 6.816406 -19.304688 C 6.570312 -19.816406 6.320312 -20.328125 6.191406 -20.828125 C 6.050781 -21.207031 5.910156 -21.589844 5.828125 -21.960938 C 5.792969 -22.207031 5.941406 -22.433594 5.90625 -22.683594 C 5.878906 -22.988281 5.722656 -23.246094 5.757812 -23.546875 C 5.730469 -23.855469 5.695312 -24.101562 5.71875 -24.339844 C 5.746094 -24.582031 5.765625 -24.761719 5.792969 -25 L 5.835938 -25.421875 C 5.972656 -26.683594 6.054688 -28.007812 6.195312 -29.328125 L 6.609375 -33.171875 C 6.753906 -34.492188 6.957031 -35.804688 7.089844 -37.066406 C 7.234375 -38.386719 7.429688 -39.640625 7.574219 -40.960938 C 7.585938 -41.082031 7.597656 -41.203125 7.671875 -41.316406 C 7.757812 -41.550781 7.824219 -41.601562 8.011719 -41.644531 C 8.070312 -41.636719 8.125 -41.570312 8.125 -41.570312 C 9.265625 -41.449219 10.359375 -41.453125 11.5 -41.328125 C 12.578125 -41.210938 13.710938 -41.03125 14.792969 -40.914062 C 14.914062 -40.898438 14.96875 -40.832031 15.085938 -40.820312 C 15.199219 -40.746094 15.195312 -40.6875 15.234375 -40.5 C 15.222656 -40.382812 15.328125 -40.246094 15.316406 -40.128906 C 15.179688 -38.867188 15.097656 -37.539062 14.960938 -36.28125 C 14.820312 -34.960938 14.625 -33.703125 14.488281 -32.445312 L 14.066406 -28.542969 C 13.929688 -27.28125 13.730469 -25.96875 13.59375 -24.707031 C 13.566406 -24.46875 13.535156 -24.167969 13.570312 -23.921875 C 13.550781 -23.742188 13.589844 -23.554688 13.578125 -23.433594 C 13.617188 -23.246094 13.71875 -23.054688 13.757812 -22.867188 C 13.859375 -22.675781 13.894531 -22.429688 13.996094 -22.234375 C 14.035156 -22.046875 14.140625 -21.914062 14.25 -21.78125 C 14.402344 -21.523438 14.691406 -21.371094 14.972656 -21.15625 C 15.191406 -20.953125 15.40625 -20.6875 15.699219 -20.59375 C 15.875 -20.515625 16.058594 -20.554688 16.234375 -20.476562 C 16.40625 -20.394531 16.527344 -20.382812 16.707031 -20.363281 C 17.007812 -20.332031 17.300781 -20.238281 17.675781 -20.320312 C 18.226562 -20.382812 18.734375 -20.570312 19.191406 -20.886719 C 19.257812 -20.9375 19.378906 -20.925781 19.511719 -21.03125 C 19.976562 -21.40625 20.335938 -21.914062 20.582031 -22.496094 C 20.660156 -22.671875 20.804688 -22.898438 20.832031 -23.136719 C 20.851562 -23.316406 20.816406 -23.5625 20.84375 -23.804688 C 20.84375 -23.804688 20.902344 -23.796875 20.851562 -23.863281 C 20.863281 -23.984375 20.9375 -24.097656 20.957031 -24.277344 L 21.492188 -29.261719 C 21.671875 -30.941406 21.792969 -32.628906 21.976562 -34.308594 C 22.15625 -35.988281 22.277344 -37.675781 22.460938 -39.359375 C 22.472656 -39.476562 22.550781 -39.652344 22.625 -39.765625 C 22.703125 -39.9375 22.832031 -39.984375 23.015625 -40.027344 C 23.078125 -40.019531 23.144531 -40.074219 23.144531 -40.074219 C 24.285156 -39.949219 25.359375 -39.773438 26.5 -39.652344 C 27.640625 -39.527344 28.714844 -39.351562 29.855469 -39.230469 L 30.035156 -39.210938 C 30.207031 -39.128906 30.320312 -39.058594 30.300781 -38.878906 C 30.355469 -38.8125 30.28125 -38.695312 30.269531 -38.578125 C 30.121094 -37.195312 29.972656 -35.816406 29.828125 -34.496094 Z M 29.390625 -30.414062" transform="translate(304.792 201.892)"/></g></g></g></svg>