<svg xmlns="http://www.w3.org/2000/svg" width="375" viewBox="0 0 375 375" height="375" version="1.0"><defs><clipPath id="a"><path d="M 24 23 L 370 23 L 370 365 L 24 365 Z M 24 23"/></clipPath><clipPath id="b"><path d="M 24.957031 -2.570312 L 384.777344 23.316406 L 359.800781 370.417969 L -0.015625 344.53125 Z M 24.957031 -2.570312"/></clipPath><clipPath id="c"><path d="M 24.957031 -2.570312 L 384.777344 23.316406 L 359.800781 370.417969 L -0.015625 344.53125 Z M 24.957031 -2.570312"/></clipPath><clipPath id="d"><path d="M 30.101562 15.976562 L 383.425781 41.398438 L 359.703125 371.054688 L 6.382812 345.632812 Z M 30.101562 15.976562"/></clipPath><clipPath id="e"><path d="M 30.101562 15.976562 L 383.425781 41.398438 L 359.75 370.414062 L 6.429688 344.992188 Z M 30.101562 15.976562"/></clipPath><clipPath id="f"><path d="M 71 4 L 112 4 L 112 14 L 71 14 Z M 71 4"/></clipPath><clipPath id="g"><path d="M 24.957031 -2.570312 L 384.777344 23.316406 L 359.800781 370.417969 L -0.015625 344.53125 Z M 24.957031 -2.570312"/></clipPath><clipPath id="h"><path d="M 24.957031 -2.570312 L 384.777344 23.316406 L 359.800781 370.417969 L -0.015625 344.53125 Z M 24.957031 -2.570312"/></clipPath><clipPath id="i"><path d="M 203 23 L 250 23 L 250 41 L 203 41 Z M 203 23"/></clipPath><clipPath id="j"><path d="M 24.957031 -2.570312 L 384.777344 23.316406 L 359.800781 370.417969 L -0.015625 344.53125 Z M 24.957031 -2.570312"/></clipPath><clipPath id="k"><path d="M 24.957031 -2.570312 L 384.777344 23.316406 L 359.800781 370.417969 L -0.015625 344.53125 Z M 24.957031 -2.570312"/></clipPath><clipPath id="l"><path d="M 9 209 L 70 209 L 70 290 L 9 290 Z M 9 209"/></clipPath><clipPath id="m"><path d="M 24.957031 -2.570312 L 384.777344 23.316406 L 359.800781 370.417969 L -0.015625 344.53125 Z M 24.957031 -2.570312"/></clipPath><clipPath id="n"><path d="M 24.957031 -2.570312 L 384.777344 23.316406 L 359.800781 370.417969 L -0.015625 344.53125 Z M 24.957031 -2.570312"/></clipPath><clipPath id="o"><path d="M 38 285 L 74 285 L 74 318 L 38 318 Z M 38 285"/></clipPath><clipPath id="p"><path d="M 24.957031 -2.570312 L 384.777344 23.316406 L 359.800781 370.417969 L -0.015625 344.53125 Z M 24.957031 -2.570312"/></clipPath><clipPath id="q"><path d="M 24.957031 -2.570312 L 384.777344 23.316406 L 359.800781 370.417969 L -0.015625 344.53125 Z M 24.957031 -2.570312"/></clipPath></defs><g clip-path="url(#a)"><g clip-path="url(#b)"><g clip-path="url(#c)"><g clip-path="url(#d)"><g clip-path="url(#e)"><path fill="#FFF" d="M 264.0625 117.492188 C 253.722656 113.449219 243.730469 109.507812 232.835938 107.132812 C 222.089844 104.792969 211.644531 105.195312 200.777344 105.472656 C 208.515625 98.730469 219.703125 99.03125 229.222656 100.625 C 241.933594 102.753906 254.25 109.261719 264.0625 117.492188 Z M 107.789062 143.367188 C 111.539062 147.1875 115.003906 151.257812 118.871094 154.972656 C 121.652344 157.636719 124.574219 160.171875 127.332031 162.855469 C 137.929688 172.320312 149.863281 180.617188 162.375 187.328125 C 167.914062 190.296875 173.5625 192.949219 179.332031 195.421875 C 185.929688 198.25 192.78125 200.183594 199.539062 202.539062 C 180.671875 204.761719 160.570312 196.519531 145.25 186.089844 C 129.546875 175.402344 114.914062 161.363281 107.789062 143.367188 Z M 319.636719 179.5625 C 328.429688 191.289062 335.742188 203.984375 341.605469 217.417969 C 329.910156 193.855469 313.640625 172.25 292.992188 155.828125 C 282.390625 147.398438 270.578125 140.109375 257.769531 135.582031 C 246.410156 131.570312 233.449219 129.550781 221.902344 134.015625 C 225.214844 135.394531 228.371094 137.136719 231.339844 139.15625 C 234.296875 141.175781 236.746094 143.9375 239.699219 145.882812 C 245.5 149.710938 250.960938 154.101562 256.003906 158.875 C 266.074219 168.414062 274.765625 179.515625 281.363281 191.734375 C 294.75 216.515625 300.175781 247.796875 289.351562 274.515625 C 282.6875 290.964844 270.597656 303.316406 255.542969 312.289062 C 266.121094 304.417969 274.84375 294.847656 280.738281 282.957031 C 287.523438 269.261719 289.824219 253.808594 288.417969 238.65625 C 285.9375 211.921875 272.855469 186.75 253.15625 168.664062 C 253.988281 172.046875 254.339844 175.585938 253.882812 179.054688 C 253.667969 180.660156 253.277344 182.242188 252.6875 183.753906 C 251.996094 185.519531 252.15625 187.019531 252.113281 188.898438 C 251.9375 196.414062 250.398438 203.796875 247.042969 210.558594 C 242.101562 220.527344 233.691406 228.113281 223.609375 232.589844 C 194.132812 245.679688 158.398438 236.65625 130.933594 222.804688 C 110.496094 212.496094 92.242188 198.378906 76.589844 181.714844 C 97.710938 201.65625 123.523438 217.878906 151.6875 225.582031 C 177.277344 232.578125 214.855469 234.167969 231.382812 208.832031 C 234.140625 204.609375 236.074219 199.855469 237.121094 194.921875 C 233.570312 195.3125 229.964844 194.953125 226.5 194.148438 C 224.679688 193.726562 223.542969 193.875 221.667969 193.886719 C 219.609375 193.894531 217.085938 193.046875 215.035156 192.871094 C 207.601562 192.234375 200.292969 190.449219 193.269531 187.976562 C 180.058594 183.328125 167.882812 176.175781 156.855469 167.59375 C 135.164062 150.71875 116.472656 125.367188 111.035156 98.03125 C 107.644531 80.988281 110.238281 62.640625 122.0625 49.332031 C 99.640625 83.867188 125.335938 127.679688 151.949219 151.457031 C 165.175781 163.277344 181.21875 172.617188 198.625 176.453125 C 195.140625 172.394531 192.246094 167.761719 189.011719 163.488281 C 184.648438 157.734375 180.972656 151.402344 178.019531 144.816406 C 172.570312 132.660156 169.292969 118.027344 173 104.894531 C 176.585938 92.199219 186.664062 83.117188 199.066406 79.261719 C 212.875 74.898438 228.078125 76.820312 241.757812 80.6875 C 248.816406 82.6875 255.605469 85.410156 262.265625 88.453125 C 243.152344 80.976562 218.792969 74.832031 199.804688 85.925781 C 179.761719 97.628906 180.441406 121.96875 189.476562 140.601562 C 190.480469 138.601562 191.820312 136.945312 193.492188 135.488281 C 194.925781 133.761719 196.28125 132.035156 198 130.5625 C 203.492188 125.851562 210.179688 123.074219 217.292969 121.929688 C 228.53125 120.125 240.003906 122.128906 250.652344 125.832031 C 278.378906 135.421875 302.242188 156.351562 319.636719 179.5625 Z M 313.921875 242.296875 C 309.898438 230.703125 306.46875 218.992188 301.949219 207.5625 C 297.34375 195.910156 291.300781 185.015625 286.082031 173.660156 C 295.078125 182.667969 302.066406 193.652344 307.179688 205.269531 C 312.109375 216.464844 316.066406 229.945312 313.921875 242.296875 Z M 264.691406 204.910156 C 264.199219 200.355469 263.089844 195.972656 262.332031 191.472656 C 268.929688 200.167969 273.085938 211.242188 272.648438 222.25 C 272.226562 232.914062 267.117188 243.976562 255.945312 246.640625 C 257.933594 242.457031 260.128906 238.5625 261.761719 234.203125 C 263.445312 229.714844 264.492188 224.683594 264.855469 219.90625 C 265.242188 214.886719 265.234375 209.914062 264.691406 204.910156 Z M 206.203125 270.445312 C 198.054688 270.320312 189.691406 267.027344 183.617188 261.601562 C 183.46875 261.472656 183.324219 261.335938 183.179688 261.195312 C 190.539062 260.144531 198.320312 260.605469 205.734375 260.4375 C 212.757812 260.167969 220.03125 259.214844 227.054688 259.695312 C 223.535156 267.675781 214.304688 270.566406 206.203125 270.445312 Z M 151.511719 78.839844 C 157.785156 72.761719 165.851562 70.835938 174.3125 72.203125 C 171.726562 73.980469 168.910156 75.386719 166.339844 77.207031 C 163.433594 79.085938 161.011719 81.675781 158.648438 84.167969 C 156.023438 87.433594 153.90625 90.839844 151.894531 94.503906 C 150.683594 97.121094 149.644531 99.863281 148.324219 102.421875 C 145.179688 94.324219 145.957031 85.632812 151.511719 78.839844 Z M 356.679688 255.808594 C 358.339844 263.0625 359.554688 273.699219 353.488281 279.304688 C 352.140625 271.695312 351.710938 263.890625 350.539062 256.246094 C 349.203125 248.816406 347.296875 241.457031 346.089844 234.015625 C 351.207031 240.214844 354.886719 247.972656 356.679688 255.808594 Z M 363.867188 197.882812 C 358.421875 182.183594 350.394531 167.375 341.113281 153.628906 C 322.214844 125.628906 297.441406 101.085938 268.734375 83.226562 C 232.324219 60.578125 180.90625 42.992188 140.144531 64.78125 C 152.734375 39.265625 187.589844 41.277344 210.765625 47.0625 C 236.300781 53.4375 263.210938 65.507812 280.585938 85.929688 C 276.210938 80.339844 271.261719 75.210938 265.972656 70.484375 C 241.792969 48.871094 210.304688 33.925781 178.4375 28.203125 C 147.265625 22.605469 111.332031 26.5625 90.710938 53.386719 C 63.480469 88.8125 77.441406 137.96875 98.003906 172.828125 C 74.582031 152.476562 55.613281 122.921875 54.441406 91.160156 C 53.277344 59.695312 73.148438 23.582031 108.238281 24.480469 C 110.179688 24.53125 112.117188 24.683594 114.046875 24.929688 C 98.578125 22.097656 82.398438 23.417969 67.988281 29.917969 C 52.726562 36.800781 40.460938 49.125 33.144531 64.144531 C 19.363281 92.425781 23.328125 126.195312 34.789062 154.519531 C 47.34375 185.542969 69.191406 212.53125 94.332031 234.292969 C 119.535156 256.101562 149.242188 273.664062 181.367188 282.917969 C 201.132812 288.613281 222.066406 291.078125 242.550781 288.527344 C 216.191406 308.230469 179.027344 304.871094 149.632812 294.832031 C 118.105469 284.0625 88.96875 264.75 65.152344 241.582031 C 46.574219 223.511719 25.976562 197.816406 28.582031 170.132812 C 22.550781 201.632812 39.890625 233.894531 58.726562 257.8125 C 79.464844 284.148438 106.445312 305.761719 136.167969 321.128906 C 164.328125 335.691406 196.214844 345.3125 228.152344 344.253906 C 260.28125 343.1875 291.871094 329.488281 310.800781 302.75 C 328.554688 277.675781 331.507812 246.121094 325.644531 216.609375 C 340.625 245.617188 345.328125 280.902344 331.746094 311.347656 C 319.171875 339.542969 290.328125 365.867188 257.421875 359.050781 C 253.855469 358.308594 250.371094 357.214844 247.003906 355.820312 C 260.859375 362.792969 276.507812 366.070312 291.972656 364.21875 C 307.917969 362.304688 322.832031 355.046875 334.488281 344.035156 C 358.496094 321.359375 365.921875 286.585938 362.320312 254.730469 C 358.789062 223.449219 345.351562 193.59375 327.824219 167.742188 C 310.269531 141.855469 287.769531 119.507812 261.726562 102.207031 C 290.777344 112.410156 315.105469 134.847656 333.503906 158.964844 C 343.199219 171.667969 351.816406 185.414062 358.589844 199.902344 C 364.519531 212.601562 371.144531 228.921875 367.140625 243.117188 C 372.824219 228.867188 368.6875 211.769531 363.867188 197.882812"/></g></g></g></g></g><g clip-path="url(#f)"><g clip-path="url(#g)"><g clip-path="url(#h)"><path fill="#FFF" d="M 71.039062 13.433594 C 86.371094 10.476562 95.886719 9.902344 111.21875 6.949219 C 97.8125 2.660156 82.421875 5.144531 71.039062 13.433594"/></g></g></g><g clip-path="url(#i)"><g clip-path="url(#j)"><g clip-path="url(#k)"><path fill="#FFF" d="M 203.953125 23.914062 C 219.84375 27.160156 235.230469 32.875 249.382812 40.804688 C 238.117188 28.34375 220.617188 21.835938 203.953125 23.914062"/></g></g></g><g clip-path="url(#l)"><g clip-path="url(#m)"><g clip-path="url(#n)"><path fill="#FFF" d="M 9.742188 209.617188 C 12.929688 244.449219 36.867188 276.574219 69.316406 289.558594 C 43.066406 268.597656 22.332031 240.773438 9.742188 209.617188"/></g></g></g><g clip-path="url(#o)"><g clip-path="url(#p)"><g clip-path="url(#q)"><path fill="#FFF" d="M 38.832031 285.246094 C 43.796875 302.777344 55.210938 315.238281 73.226562 317.855469 C 59.691406 309.496094 47.902344 298.324219 38.832031 285.246094"/></g></g></g></svg>